<svg width="21" height="21" viewBox="0 0 21 21" fill="none" xmlns="http://www.w3.org/2000/svg">
<path fill-rule="evenodd" clip-rule="evenodd" d="M18.8591 7.64706C18.8591 10.8958 16.2255 13.5294 12.9768 13.5294C9.72805 13.5294 7.09443 10.8958 7.09443 7.64706C7.09443 4.39832 9.72805 1.76471 12.9768 1.76471C16.2255 1.76471 18.8591 4.39832 18.8591 7.64706ZM20.6238 7.64706C20.6238 11.8704 17.2001 15.2941 12.9768 15.2941C11.183 15.2941 9.53355 14.6765 8.22934 13.6424L1.24784 20.6239L0 19.376L6.9815 12.3945C5.94733 11.0903 5.32973 9.44082 5.32973 7.64706C5.32973 3.4237 8.75343 0 12.9768 0C17.2001 0 20.6238 3.4237 20.6238 7.64706Z" fill="black"/>
</svg>
