<svg width="21" height="21" viewBox="0 0 21 21" fill="none" xmlns="http://www.w3.org/2000/svg">
<path fill-rule="evenodd" clip-rule="evenodd" d="M11.0086 0H10.5944L10.3015 0.292893L0.707107 9.88732L0 10.5944L0.707107 11.3015L9.19448 19.7889L9.90159 20.496L10.6087 19.7889L19.8341 10.5635L20.127 10.2706V9.85639V1V0H19.127H11.0086ZM2.82843 10.5944L11.4229 2H18.127V9.44218L9.90159 17.6676L2.82843 10.5944ZM14.6988 6.90431C15.514 6.90431 16.1749 6.24346 16.1749 5.42825C16.1749 4.61304 15.514 3.95218 14.6988 3.95218C13.8836 3.95218 13.2227 4.61304 13.2227 5.42825C13.2227 6.24346 13.8836 6.90431 14.6988 6.90431Z" fill="black"/>
</svg>
