<svg width="571" height="448" viewBox="0 0 571 448" fill="none" xmlns="http://www.w3.org/2000/svg">
<rect width="448" height="448" fill="#1F0141"/>
<path d="M349.9 326H385L315.7 110H266.8L197.5 326H232.3L244.3 288.8H337.9L349.9 326ZM254.2 257.3L290.8 143.3L327.7 257.3H254.2ZM432.606 254.3H557.706C558.006 251.3 558.306 248 558.306 245C558.306 223.4 552.306 202.4 539.106 186.2C524.406 168.2 502.206 159.5 478.506 159.5C454.806 159.5 432.306 168.5 417.606 186.2C404.706 202.4 398.406 224 398.406 246.5C398.406 267.2 404.406 287.3 417.606 303.8C432.006 321.2 456.006 330.5 480.306 330.5C504.906 330.5 525.006 321.8 540.006 304.7C543.606 300.5 545.706 296.9 547.806 293.3L519.006 277.7C517.806 280.4 515.706 283.1 513.606 285.5C505.206 295.7 492.606 301.1 478.506 301.1C464.406 301.1 450.906 295.4 443.106 284.6C436.806 276.2 433.806 265.4 432.606 254.3ZM478.506 188.9C492.606 188.9 505.806 194.3 513.606 205.1C518.706 211.4 521.406 219.2 522.906 227.3H433.806C435.306 219.2 438.306 211.4 443.106 205.1C450.906 194.3 464.406 188.9 478.506 188.9Z" fill="#D391FF"/>
</svg>
