<svg width="463" height="448" viewBox="0 0 463 448" fill="none" xmlns="http://www.w3.org/2000/svg">
<rect width="448" height="448" rx="127" fill="#FF0141"/>
<path d="M225.9 326H261L191.7 110H142.8L73.5 326H108.3L120.3 288.8H213.9L225.9 326ZM130.2 257.3L166.8 143.3L203.7 257.3H130.2ZM395.006 110V174.5C382.706 164.9 366.506 159.5 349.706 159.5C327.506 159.5 306.506 168.5 293.006 185.3C280.106 201.5 274.406 223.1 274.406 245C274.406 266.6 279.206 287.6 293.006 304.4C306.206 321.2 327.206 330.5 348.806 330.5C368.606 330.5 386.306 324.2 399.206 312.2V326H428.906V110H395.006ZM386.906 286.1C379.106 295.4 367.106 300.2 353.906 300.2C340.706 300.2 327.506 295.1 319.706 283.7C312.806 274.1 310.106 260 310.106 245C310.106 230 313.406 215.6 320.306 206C328.106 194.6 340.406 189.8 354.806 189.8C367.706 189.8 379.406 194.3 386.906 203.6C395.606 213.8 399.206 229.1 399.206 245C399.206 260.6 395.606 276.2 386.906 286.1Z" fill="white"/>
</svg>
