<svg width="579" height="448" viewBox="0 0 579 448" fill="none" xmlns="http://www.w3.org/2000/svg">
<path d="M0 0H224C347.712 0 448 100.288 448 224V448H0V0Z" fill="#7AC9D4"/>
<path d="M188.9 345H224L154.7 129H105.8L36.5 345H71.3L83.3 307.8H176.9L188.9 345ZM93.2 276.3L129.8 162.3L166.7 276.3H93.2ZM374.506 225.6C368.806 209.1 355.906 194.1 340.306 186.6C329.506 180.9 317.206 178.5 306.106 178.5C295.006 178.5 283.306 179.1 271.006 184.5C254.806 191.4 242.806 207 242.806 225.9C242.806 233.7 245.506 244.5 252.106 251.1C258.406 258.9 269.506 264.6 279.406 267.6C286.306 270.3 292.606 272.1 317.806 279C326.806 281.4 330.706 282.6 336.706 286.2C341.806 289.5 344.806 294.6 344.806 299.4C344.806 305.4 342.106 309.9 336.706 313.5C331.006 318 318.706 319.8 310.606 319.8C298.606 319.8 284.806 316.8 276.406 306.9C271.906 301.8 268.306 291.3 267.706 284.7L235.906 292.5C241.306 308.7 242.206 316.2 253.006 327.9C268.006 344.1 287.206 349.5 310.306 349.5C325.906 349.5 340.006 347.1 353.506 338.7C367.006 330.6 375.706 315 375.706 299.7C375.706 285.3 369.106 274.2 356.806 264.9C348.406 258.3 337.606 253.5 325.606 250.8C313.006 247.5 300.406 243.9 291.106 240.6C284.806 238.5 281.206 237 278.206 234.9C275.206 232.2 273.406 229.8 273.406 224.7C273.406 219 278.806 213.9 283.906 211.5C289.606 209.1 296.806 207.9 304.306 207.9C311.506 207.9 320.506 210.3 326.506 213.6C334.306 217.8 339.406 225 342.706 233.4L374.506 225.6ZM543.481 204.3C529.981 187.5 508.681 178.5 486.481 178.5C469.681 178.5 453.481 183.9 441.181 193.5V129H407.281V345H437.281V331.2C450.181 343.5 467.581 349.5 487.381 349.5C509.281 349.5 529.981 340.2 543.481 323.4C556.981 306.6 561.781 285.6 561.781 264C561.781 242.1 556.081 220.5 543.481 204.3ZM516.481 302.7C508.681 314.1 495.481 319.2 482.581 319.2C469.081 319.2 457.381 314.4 449.281 305.1C440.881 295.2 437.281 279.6 437.281 264C437.281 248.1 440.881 232.8 449.281 222.6C456.781 213.3 468.481 208.8 481.381 208.8C496.081 208.8 508.381 213.6 516.181 225C523.081 234.6 526.081 249 526.081 264C526.081 279 523.381 293.1 516.481 302.7Z" fill="#1C686D"/>
</svg>
