<svg width="661" height="514" viewBox="0 0 661 514" fill="none" xmlns="http://www.w3.org/2000/svg">
<circle cx="315" cy="257" r="207" fill="white" stroke="#E87D0D" stroke-width="100"/>
<path d="M73.168 347.32C58.288 347.32 45.808 343.72 35.728 336.52C25.648 329.224 18.016 319.384 12.832 307C7.648 294.616 5.056 280.648 5.056 265.096C5.056 249.544 7.6 235.576 12.688 223.192C17.872 210.808 25.456 201.064 35.44 193.96C45.52 186.76 57.904 183.16 72.592 183.16C87.184 183.16 99.76 186.76 110.32 193.96C120.976 201.064 129.184 210.808 134.944 223.192C140.704 235.48 143.584 249.448 143.584 265.096C143.584 280.648 140.704 294.664 134.944 307.144C129.28 319.528 121.168 329.32 110.608 336.52C100.144 343.72 87.664 347.32 73.168 347.32ZM0.0160019 343V135.64H30.256V231.112H26.8V343H0.0160019ZM68.992 320.104C78.592 320.104 86.512 317.656 92.752 312.76C99.088 307.864 103.792 301.288 106.864 293.032C110.032 284.68 111.616 275.368 111.616 265.096C111.616 254.92 110.032 245.704 106.864 237.448C103.792 229.192 99.04 222.616 92.608 217.72C86.176 212.824 77.968 210.376 67.984 210.376C58.576 210.376 50.8 212.68 44.656 217.288C38.608 221.896 34.096 228.328 31.12 236.584C28.24 244.84 26.8 254.344 26.8 265.096C26.8 275.848 28.24 285.352 31.12 293.608C34 301.864 38.56 308.344 44.8 313.048C51.04 317.752 59.104 320.104 68.992 320.104ZM160.979 343V131.32H191.075V343H160.979ZM286.014 347.32C270.558 347.32 256.974 343.96 245.262 337.24C233.646 330.424 224.574 320.968 218.046 308.872C211.614 296.68 208.398 282.568 208.398 266.536C208.398 249.544 211.566 234.808 217.902 222.328C224.334 209.848 233.262 200.2 244.686 193.384C256.11 186.568 269.406 183.16 284.574 183.16C300.414 183.16 313.902 186.856 325.038 194.248C336.174 201.544 344.478 211.96 349.95 225.496C355.518 239.032 357.726 255.112 356.574 273.736H326.478V262.792C326.286 244.744 322.83 231.4 316.11 222.76C309.486 214.12 299.358 209.8 285.726 209.8C270.654 209.8 259.326 214.552 251.742 224.056C244.158 233.56 240.366 247.288 240.366 265.24C240.366 282.328 244.158 295.576 251.742 304.984C259.326 314.296 270.27 318.952 284.574 318.952C293.982 318.952 302.094 316.84 308.91 312.616C315.822 308.296 321.198 302.152 325.038 294.184L354.558 303.544C348.51 317.464 339.342 328.264 327.054 335.944C314.766 343.528 301.086 347.32 286.014 347.32ZM230.574 273.736V250.264H341.598V273.736H230.574ZM476.535 343V266.536C476.535 260.488 476.007 254.296 474.951 247.96C473.991 241.528 472.071 235.576 469.191 230.104C466.407 224.632 462.423 220.216 457.239 216.856C452.151 213.496 445.479 211.816 437.223 211.816C431.847 211.816 426.759 212.728 421.959 214.552C417.159 216.28 412.935 219.112 409.287 223.048C405.735 226.984 402.903 232.168 400.791 238.6C398.775 245.032 397.767 252.856 397.767 262.072L379.047 255.016C379.047 240.904 381.687 228.472 386.967 217.72C392.247 206.872 399.831 198.424 409.719 192.376C419.607 186.328 431.559 183.304 445.575 183.304C456.327 183.304 465.351 185.032 472.647 188.488C479.943 191.944 485.847 196.504 490.359 202.168C494.967 207.736 498.471 213.832 500.871 220.456C503.271 227.08 504.903 233.56 505.767 239.896C506.631 246.232 507.063 251.8 507.063 256.6V343H476.535ZM367.239 343V187.48H394.167V232.408H397.767V343H367.239ZM587.097 347.32C572.601 347.32 560.073 343.72 549.513 336.52C539.049 329.32 530.937 319.528 525.177 307.144C519.513 294.664 516.681 280.648 516.681 265.096C516.681 249.448 519.561 235.48 525.321 223.192C531.081 210.808 539.241 201.064 549.801 193.96C560.457 186.76 573.081 183.16 587.673 183.16C602.361 183.16 614.697 186.76 624.681 193.96C634.761 201.064 642.345 210.808 647.433 223.192C652.617 235.576 655.209 249.544 655.209 265.096C655.209 280.648 652.617 294.616 647.433 307C642.249 319.384 634.617 329.224 624.537 336.52C614.457 343.72 601.977 347.32 587.097 347.32ZM591.273 320.104C601.161 320.104 609.225 317.752 615.465 313.048C621.705 308.344 626.265 301.864 629.145 293.608C632.025 285.352 633.465 275.848 633.465 265.096C633.465 254.344 631.977 244.84 629.001 236.584C626.121 228.328 621.609 221.896 615.465 217.288C609.417 212.68 601.689 210.376 592.281 210.376C582.297 210.376 574.089 212.824 567.657 217.72C561.225 222.616 556.425 229.192 553.257 237.448C550.185 245.704 548.649 254.92 548.649 265.096C548.649 275.368 550.185 284.68 553.257 293.032C556.425 301.288 561.129 307.864 567.369 312.76C573.705 317.656 581.673 320.104 591.273 320.104ZM633.465 343V231.112H630.009V135.64H660.249V343H633.465Z" fill="#265787"/>
</svg>
