<svg width="613" height="582" viewBox="0 0 613 582" fill="none" xmlns="http://www.w3.org/2000/svg">
<circle cx="322" cy="291" r="291" fill="#14151A"/>
<path d="M65.8782 389V174.253H150.286C163.906 174.253 175.339 177.037 184.585 182.604C193.832 188.172 200.791 195.38 205.464 204.228C210.136 212.977 212.473 222.223 212.473 231.966C212.473 243.797 209.54 253.938 203.674 262.389C197.908 270.839 190.103 276.606 180.261 279.688L179.962 272.381C193.682 275.761 204.221 282.372 211.578 292.215C218.935 301.958 222.614 313.341 222.614 326.365C222.614 338.992 220.078 349.978 215.008 359.323C210.037 368.669 202.73 375.976 193.086 381.245C183.542 386.415 171.959 389 158.339 389H65.8782ZM97.4937 359.323H153.566C160.625 359.323 166.938 357.981 172.506 355.297C178.173 352.612 182.597 348.785 185.779 343.814C189.059 338.743 190.7 332.728 190.7 325.769C190.7 319.307 189.258 313.491 186.375 308.321C183.591 303.052 179.515 298.926 174.146 295.943C168.877 292.861 162.663 291.32 155.505 291.32H97.4937V359.323ZM97.4937 261.941H149.838C155.605 261.941 160.774 260.798 165.348 258.511C170.02 256.125 173.699 252.745 176.383 248.371C179.167 243.897 180.559 238.528 180.559 232.265C180.559 223.913 177.775 217.053 172.208 211.685C166.64 206.316 159.184 203.632 149.838 203.632H97.4937V261.941ZM312.986 393.325C301.851 393.325 292.506 391.535 284.95 387.956C277.394 384.377 271.23 379.704 266.458 373.938C261.785 368.072 258.206 361.709 255.72 354.849C253.235 347.989 251.545 341.278 250.65 334.717C249.755 328.155 249.308 322.389 249.308 317.418V227.94H280.923V307.128C280.923 313.391 281.42 319.853 282.415 326.515C283.508 333.076 285.497 339.191 288.38 344.858C291.362 350.525 295.488 355.098 300.758 358.578C306.126 362.057 313.086 363.797 321.636 363.797C327.203 363.797 332.472 362.902 337.443 361.113C342.414 359.224 346.739 356.241 350.418 352.165C354.196 348.089 357.129 342.72 359.216 336.059C361.404 329.398 362.497 321.295 362.497 311.751L381.884 319.058C381.884 333.673 379.15 346.597 373.682 357.832C368.214 368.967 360.36 377.666 350.12 383.93C339.879 390.193 327.502 393.325 312.986 393.325ZM366.226 389V342.472H362.497V227.94H393.964V389H366.226ZM548.83 389V309.812C548.83 303.549 548.283 297.136 547.19 290.574C546.196 283.913 544.207 277.749 541.225 272.082C538.341 266.415 534.216 261.842 528.847 258.362C523.578 254.883 516.668 253.143 508.118 253.143C502.55 253.143 497.281 254.087 492.31 255.976C487.339 257.766 482.965 260.699 479.187 264.775C475.508 268.851 472.575 274.22 470.388 280.881C468.3 287.542 467.256 295.645 467.256 305.189L447.869 297.882C447.869 283.267 450.603 270.392 456.072 259.257C461.54 248.023 469.394 239.274 479.634 233.01C489.874 226.747 502.252 223.615 516.767 223.615C527.902 223.615 537.248 225.405 544.804 228.984C552.36 232.563 558.474 237.285 563.147 243.151C567.919 248.917 571.548 255.231 574.033 262.091C576.519 268.951 578.209 275.661 579.104 282.223C579.998 288.785 580.446 294.551 580.446 299.522V389H548.83ZM435.641 389V227.94H463.528V274.468H467.256V389H435.641Z" fill="#FBF0DF"/>
</svg>
