<svg width="530" height="526" viewBox="0 0 530 526" fill="none" xmlns="http://www.w3.org/2000/svg">
<path d="M265 0L492.765 131.5V394.5L265 526L37.2353 394.5V131.5L265 0Z" fill="#01559E"/>
<path d="M492.765 131.5L265 0L37.2354 131.5V394.5L492.765 131.5Z" fill="#0181CE"/>
<path d="M177.3 297.8C174.9 305.9 171.3 313.4 166.5 320C154.5 335.6 135 343.7 114.9 343.4C94.8 343.7 75.3 335.6 63.9 320C51.6 304.4 48 283.4 48 263C48 242.6 51.6 221.3 63.9 206C75.3 190.4 94.8 182.3 114.9 182.3C135 182.3 154.5 190.4 166.5 206C171.9 212.9 175.5 221.3 177.9 230.3L212.7 224.3C208.8 211.1 202.8 197.3 193.2 185.3C174.6 162.2 145.8 150.5 114.9 150.5C84.3 150.5 55.5 161.9 36.9 185.3C19.2 206.9 12.3 233.9 12 263C12 291.2 18.9 318.2 36.9 340.4C54.9 363.2 83.7 375.5 114.9 375.5C144.9 375.5 174 364.1 193.2 340.4C201.3 330.2 207 319.1 210.6 307.4L177.3 297.8ZM359.359 272.3H300.859V213.8H274.159V272.3H215.359V299.3H274.159V357.8H300.859V299.3H359.359V272.3ZM511.999 272.3H453.499V213.8H426.799V272.3H367.999V299.3H426.799V357.8H453.499V299.3H511.999V272.3Z" fill="white"/>
</svg>
