<svg width="528" height="526" viewBox="0 0 528 526" fill="none" xmlns="http://www.w3.org/2000/svg">
<path d="M264 0L492.631 131.5V394.5L264 526L35.3693 394.5V131.5L264 0Z" fill="#3949AB"/>
<path d="M491.765 131.5L264 0L36.2354 131.5V394.5L491.765 131.5Z" fill="#5C6BC0"/>
<path d="M329.3 291.8C326.9 299.9 323.3 307.4 318.5 314C306.5 329.6 287 337.7 266.9 337.4C246.8 337.7 227.3 329.6 215.9 314C203.6 298.4 200 277.4 200 257C200 236.6 203.6 215.3 215.9 200C227.3 184.4 246.8 176.3 266.9 176.3C287 176.3 306.5 184.4 318.5 200C323.9 206.9 327.5 215.3 329.9 224.3L364.7 218.3C360.8 205.1 354.8 191.3 345.2 179.3C326.6 156.2 297.8 144.5 266.9 144.5C236.3 144.5 207.5 155.9 188.9 179.3C171.2 200.9 164.3 227.9 164 257C164 285.2 170.9 312.2 188.9 334.4C206.9 357.2 235.7 369.5 266.9 369.5C296.9 369.5 326 358.1 345.2 334.4C353.3 324.2 359 313.1 362.6 301.4L329.3 291.8Z" fill="white"/>
</svg>
