<svg width="542" height="448" viewBox="0 0 542 448" fill="none" xmlns="http://www.w3.org/2000/svg">
<rect x="56" width="448" height="448" rx="224" fill="#28334C"/>
<path d="M177.3 252.8C174.9 260.9 171.3 268.4 166.5 275C154.5 290.6 135 298.7 114.9 298.4C94.8 298.7 75.3 290.6 63.9 275C51.6 259.4 48 238.4 48 218C48 197.6 51.6 176.3 63.9 161C75.3 145.4 94.8 137.3 114.9 137.3C135 137.3 154.5 145.4 166.5 161C171.9 167.9 175.5 176.3 177.9 185.3L212.7 179.3C208.8 166.1 202.8 152.3 193.2 140.3C174.6 117.2 145.8 105.5 114.9 105.5C84.3 105.5 55.5 116.9 36.9 140.3C19.2 161.9 12.3 188.9 12 218C12 246.2 18.9 273.2 36.9 295.4C54.9 318.2 83.7 330.5 114.9 330.5C144.9 330.5 174 319.1 193.2 295.4C201.3 285.2 207 274.1 210.6 262.4L177.3 252.8ZM316.819 330.5C340.819 330.5 362.719 321.8 377.419 303.8C391.219 286.4 396.919 267.5 396.919 245C396.919 223.4 391.519 203.3 377.419 186.2C363.019 168.2 340.219 159.5 316.819 159.5C293.119 159.5 270.319 168.8 255.919 186.2C243.019 202.1 236.719 222.8 236.719 245C236.719 266.6 242.119 286.7 255.919 303.8C270.619 321.5 293.119 330.5 316.819 330.5ZM350.719 283.1C342.919 293.3 330.319 298.7 316.819 298.7C303.019 298.7 290.419 293.3 282.919 283.1C275.119 272.9 272.419 258.8 272.419 245C272.419 231.2 275.119 216.8 282.919 206.6C290.419 196.4 303.019 191.3 316.819 191.3C330.319 191.3 342.919 196.4 350.719 206.6C358.519 216.8 361.219 231.2 361.219 245C361.219 258.8 358.519 272.9 350.719 283.1ZM500.738 135.5C507.938 134 516.938 134.3 524.738 135.5V106.1C501.038 103.7 477.938 104.9 461.738 120.2C449.438 132.8 446.738 149.9 446.738 162.8V164H411.938V190.7H446.738V326H480.638V190.7H524.738V164H480.638V160.1C480.638 146.9 484.838 137.9 500.738 135.5Z" fill="#AF9967"/>
</svg>
