<svg width="550" height="526" viewBox="0 0 550 526" fill="none" xmlns="http://www.w3.org/2000/svg">
<path d="M287 0L514.765 131.5V394.5L287 526L59.2353 394.5V131.5L287 0Z" fill="#7D3284"/>
<path d="M514.765 131.5L287 0L59.2354 131.5V394.5L514.765 131.5Z" fill="#914990"/>
<path d="M177.3 297.8C174.9 305.9 171.3 313.4 166.5 320C154.5 335.6 135 343.7 114.9 343.4C94.8 343.7 75.3 335.6 63.9 320C51.6 304.4 48 283.4 48 263C48 242.6 51.6 221.3 63.9 206C75.3 190.4 94.8 182.3 114.9 182.3C135 182.3 154.5 190.4 166.5 206C171.9 212.9 175.5 221.3 177.9 230.3L212.7 224.3C208.8 211.1 202.8 197.3 193.2 185.3C174.6 162.2 145.8 150.5 114.9 150.5C84.3 150.5 55.5 161.9 36.9 185.3C19.2 206.9 12.3 233.9 12 263C12 291.2 18.9 318.2 36.9 340.4C54.9 363.2 83.7 375.5 114.9 375.5C144.9 375.5 174 364.1 193.2 340.4C201.3 330.2 207 319.1 210.6 307.4L177.3 297.8ZM477.019 241.7L485.719 210.2H430.219L444.919 155H411.919L397.219 210.2H358.219L372.919 155H339.919L325.219 210.2H269.719L261.019 241.7H316.519L306.919 279.2H251.119L242.719 311H298.219L282.319 370.7H315.019L330.919 311H369.919L354.319 370.7H387.019L402.919 311H458.419L467.119 279.2H411.619L421.519 241.7H477.019ZM378.619 279.2H339.619L349.519 241.7H388.519L378.619 279.2Z" fill="white"/>
</svg>
