<svg width="556" height="499" viewBox="0 0 556 499" fill="none" xmlns="http://www.w3.org/2000/svg">
<path d="M54 51H502V275C502 398.712 401.712 499 278 499C154.288 499 54 398.712 54 275V51Z" fill="#1B73BA"/>
<path d="M177.3 232.8C174.9 240.9 171.3 248.4 166.5 255C154.5 270.6 135 278.7 114.9 278.4C94.8 278.7 75.3 270.6 63.9 255C51.6 239.4 48 218.4 48 198C48 177.6 51.6 156.3 63.9 141C75.3 125.4 94.8 117.3 114.9 117.3C135 117.3 154.5 125.4 166.5 141C171.9 147.9 175.5 156.3 177.9 165.3L212.7 159.3C208.8 146.1 202.8 132.3 193.2 120.3C174.6 97.2 145.8 85.5 114.9 85.5C84.3 85.5 55.5 96.9 36.9 120.3C19.2 141.9 12.3 168.9 12 198C12 226.2 18.9 253.2 36.9 275.4C54.9 298.2 83.7 310.5 114.9 310.5C144.9 310.5 174 299.1 193.2 275.4C201.3 265.2 207 254.1 210.6 242.4L177.3 232.8ZM373.819 186.6C368.119 170.1 355.219 155.1 339.619 147.6C328.819 141.9 316.519 139.5 305.419 139.5C294.319 139.5 282.619 140.1 270.319 145.5C254.119 152.4 242.119 168 242.119 186.9C242.119 194.7 244.819 205.5 251.419 212.1C257.719 219.9 268.819 225.6 278.719 228.6C285.619 231.3 291.919 233.1 317.119 240C326.119 242.4 330.019 243.6 336.019 247.2C341.119 250.5 344.119 255.6 344.119 260.4C344.119 266.4 341.419 270.9 336.019 274.5C330.319 279 318.019 280.8 309.919 280.8C297.919 280.8 284.119 277.8 275.719 267.9C271.219 262.8 267.619 252.3 267.019 245.7L235.219 253.5C240.619 269.7 241.519 277.2 252.319 288.9C267.319 305.1 286.519 310.5 309.619 310.5C325.219 310.5 339.319 308.1 352.819 299.7C366.319 291.6 375.019 276 375.019 260.7C375.019 246.3 368.419 235.2 356.119 225.9C347.719 219.3 336.919 214.5 324.919 211.8C312.319 208.5 299.719 204.9 290.419 201.6C284.119 199.5 280.519 198 277.519 195.9C274.519 193.2 272.719 190.8 272.719 185.7C272.719 180 278.119 174.9 283.219 172.5C288.919 170.1 296.119 168.9 303.619 168.9C310.819 168.9 319.819 171.3 325.819 174.6C333.619 178.8 338.719 186 342.019 194.4L373.819 186.6ZM534.694 186.6C528.994 170.1 516.094 155.1 500.494 147.6C489.694 141.9 477.394 139.5 466.294 139.5C455.194 139.5 443.494 140.1 431.194 145.5C414.994 152.4 402.994 168 402.994 186.9C402.994 194.7 405.694 205.5 412.294 212.1C418.594 219.9 429.694 225.6 439.594 228.6C446.494 231.3 452.794 233.1 477.994 240C486.994 242.4 490.894 243.6 496.894 247.2C501.994 250.5 504.994 255.6 504.994 260.4C504.994 266.4 502.294 270.9 496.894 274.5C491.194 279 478.894 280.8 470.794 280.8C458.794 280.8 444.994 277.8 436.594 267.9C432.094 262.8 428.494 252.3 427.894 245.7L396.094 253.5C401.494 269.7 402.394 277.2 413.194 288.9C428.194 305.1 447.394 310.5 470.494 310.5C486.094 310.5 500.194 308.1 513.694 299.7C527.194 291.6 535.894 276 535.894 260.7C535.894 246.3 529.294 235.2 516.994 225.9C508.594 219.3 497.794 214.5 485.794 211.8C473.194 208.5 460.594 204.9 451.294 201.6C444.994 199.5 441.394 198 438.394 195.9C435.394 193.2 433.594 190.8 433.594 185.7C433.594 180 438.994 174.9 444.094 172.5C449.794 170.1 456.994 168.9 464.494 168.9C471.694 168.9 480.694 171.3 486.694 174.6C494.494 178.8 499.594 186 502.894 194.4L534.694 186.6Z" fill="white"/>
</svg>
