<svg width="448" height="448" viewBox="0 0 448 448" fill="none" xmlns="http://www.w3.org/2000/svg">
<rect width="448" height="448" fill="#113228"/>
<path d="M257.1 165.2C239.7 131.3 203.7 110 166.8 110H96V326H166.8C204 326 239.7 304.4 257.1 270.8C265.5 254 269.4 235.7 269.4 218C269.4 200 265.5 181.7 257.1 165.2ZM227.1 255.2C215.4 278.9 190.2 293.6 165 293.9L130.2 294.2V141.8H165C191.7 142.1 215.4 157.4 227.1 180.5C232.5 191.9 234.9 204.5 234.9 218C235.2 231.2 232.5 244.1 227.1 255.2ZM310.631 110.6V142.4H344.531V110.6H310.631ZM288.431 368C292.631 368 299.531 367.4 304.031 361.7C309.131 356.3 310.631 348.2 310.631 333.5V164H344.531V333.5C344.531 354.2 341.531 369.8 331.631 382.4C321.731 395.3 306.731 402.5 288.431 402.5V368Z" fill="white"/>
</svg>
