<svg width="545" height="448" viewBox="0 0 545 448" fill="none" xmlns="http://www.w3.org/2000/svg">
<rect width="448" height="448" fill="#DEDEDE"/>
<path d="M257.1 165.2C239.7 131.3 203.7 110 166.8 110H96V326H166.8C204 326 239.7 304.4 257.1 270.8C265.5 254 269.4 235.7 269.4 218C269.4 200 265.5 181.7 257.1 165.2ZM227.1 255.2C215.4 278.9 190.2 293.6 165 293.9L130.2 294.2V141.8H165C191.7 142.1 215.4 157.4 227.1 180.5C232.5 191.9 234.9 204.5 234.9 218C235.2 231.2 232.5 244.1 227.1 255.2ZM380.231 159.8C369.131 160.1 357.731 163.1 348.431 170C341.531 174.8 336.431 180.5 332.531 187.1V164H302.531V326H336.431V243.2C336.431 226.7 338.831 212.9 349.031 202.7C355.331 196.1 364.931 191.9 377.231 191.3C387.731 190.7 397.631 192.2 405.431 195.2V163.7C397.031 160.7 388.631 159.2 380.231 159.8ZM504.675 135.5C511.875 134 520.875 134.3 528.675 135.5V106.1C504.975 103.7 481.875 104.9 465.675 120.2C453.375 132.8 450.675 149.9 450.675 162.8V164H415.875V190.7H450.675V326H484.575V190.7H528.675V164H484.575V160.1C484.575 146.9 488.775 137.9 504.675 135.5Z" fill="#6B1F22"/>
</svg>
