<svg width="568" height="248" viewBox="0 0 568 248" fill="none" xmlns="http://www.w3.org/2000/svg">
<rect y="40" width="568" height="208" fill="black"/>
<path d="M145.062 127.3V154.3H235.063V127.3H145.062ZM385.663 9.99998V74.5C373.363 64.9 357.163 59.5 340.363 59.5C318.163 59.5 297.163 68.5 283.663 85.3C270.763 101.5 265.063 123.1 265.063 145C265.063 166.6 269.863 187.6 283.663 204.4C296.863 221.2 317.863 230.5 339.463 230.5C359.263 230.5 376.963 224.2 389.863 212.2V226H419.563V9.99998H385.663ZM377.563 186.1C369.763 195.4 357.763 200.2 344.563 200.2C331.363 200.2 318.163 195.1 310.363 183.7C303.463 174.1 300.763 160 300.763 145C300.763 130 304.063 115.6 310.963 106C318.763 94.6 331.063 89.8 345.463 89.8C358.363 89.8 370.063 94.3 377.563 103.6C386.263 113.8 389.863 129.1 389.863 145C389.863 160.6 386.263 176.2 377.563 186.1Z" fill="white"/>
</svg>
