<svg width="518" height="514" viewBox="0 0 518 514" fill="none" xmlns="http://www.w3.org/2000/svg">
<circle cx="259" cy="257" r="257" fill="#009485"/>
<path d="M23.1811 245.372V65.2613H129.872V91.4024H49.3222V142.184H114.863V168.45H49.3222V245.372H23.1811ZM185.674 249.124C175.667 249.124 167.287 247.29 160.533 243.621C153.779 239.869 148.651 234.949 145.149 228.862C141.73 222.691 140.021 215.937 140.021 208.599C140.021 201.762 141.23 195.758 143.648 190.588C146.066 185.419 149.651 181.041 154.404 177.455C159.157 173.786 164.994 170.826 171.915 168.575C177.919 166.824 184.715 165.281 192.303 163.947C199.891 162.613 207.854 161.362 216.192 160.195C224.614 159.027 232.953 157.86 241.208 156.693L231.702 161.946C231.869 151.356 229.617 143.518 224.948 138.431C220.362 133.261 212.44 130.677 201.183 130.677C194.095 130.677 187.591 132.344 181.671 135.68C175.751 138.932 171.623 144.352 169.289 151.94L144.899 144.435C148.234 132.845 154.571 123.631 163.91 116.793C173.333 109.955 185.84 106.537 201.433 106.537C213.524 106.537 224.031 108.621 232.953 112.791C241.958 116.876 248.546 123.38 252.715 132.303C254.883 136.722 256.217 141.391 256.717 146.311C257.218 151.231 257.468 156.526 257.468 162.196V245.372H234.329V214.478L238.831 218.481C233.245 228.82 226.115 236.533 217.443 241.62C208.855 246.623 198.265 249.124 185.674 249.124ZM190.301 227.736C197.723 227.736 204.102 226.444 209.438 223.859C214.775 221.191 219.069 217.813 222.321 213.728C225.573 209.642 227.699 205.389 228.7 200.97C230.118 196.967 230.91 192.465 231.077 187.461C231.327 182.458 231.452 178.456 231.452 175.454L239.957 178.581C231.702 179.832 224.197 180.957 217.443 181.958C210.689 182.959 204.56 183.959 199.057 184.96C193.637 185.877 188.801 187.003 184.548 188.337C180.962 189.588 177.752 191.089 174.917 192.84C172.165 194.591 169.956 196.717 168.288 199.219C166.704 201.72 165.911 204.764 165.911 208.349C165.911 211.851 166.787 215.103 168.538 218.105C170.289 221.024 172.957 223.359 176.543 225.11C180.129 226.861 184.715 227.736 190.301 227.736ZM341.604 248.999C325.177 248.999 311.794 245.372 301.454 238.118C291.114 230.863 284.777 220.649 282.442 207.474L309.209 203.346C310.876 210.351 314.712 215.896 320.716 219.981C326.803 223.984 334.349 225.985 343.355 225.985C351.526 225.985 357.905 224.317 362.491 220.982C367.161 217.647 369.496 213.061 369.496 207.224C369.496 203.805 368.662 201.053 366.994 198.969C365.41 196.801 362.033 194.758 356.863 192.84C351.693 190.922 343.813 188.545 333.223 185.71C321.633 182.709 312.419 179.498 305.581 176.079C298.827 172.577 293.991 168.533 291.072 163.947C288.237 159.277 286.82 153.649 286.82 147.062C286.82 138.89 288.988 131.761 293.324 125.673C297.66 119.586 303.747 114.875 311.585 111.54C319.507 108.204 328.762 106.537 339.352 106.537C349.692 106.537 358.906 108.163 366.994 111.415C375.082 114.667 381.628 119.295 386.631 125.298C391.634 131.219 394.636 138.181 395.637 146.186L368.87 151.064C367.953 144.56 364.91 139.432 359.74 135.68C354.57 131.927 347.857 129.884 339.602 129.551C331.681 129.217 325.26 130.551 320.34 133.553C315.421 136.472 312.961 140.516 312.961 145.686C312.961 148.688 313.878 151.231 315.713 153.315C317.63 155.4 321.299 157.401 326.719 159.319C332.139 161.237 340.144 163.53 350.734 166.198C362.074 169.117 371.08 172.369 377.751 175.954C384.422 179.457 389.174 183.667 392.01 188.587C394.928 193.423 396.387 199.302 396.387 206.223C396.387 219.565 391.509 230.029 381.753 237.617C372.081 245.205 358.697 248.999 341.604 248.999ZM501.36 245.372C492.855 247.04 484.516 247.749 476.345 247.498C468.173 247.248 460.877 245.664 454.456 242.745C448.036 239.827 443.199 235.241 439.947 228.987C437.029 223.4 435.444 217.73 435.194 211.977C435.028 206.14 434.944 199.552 434.944 192.214V72.7659H461.21V190.964C461.21 196.384 461.252 201.095 461.335 205.097C461.502 209.1 462.378 212.477 463.962 215.229C466.964 220.398 471.717 223.359 478.221 224.109C484.808 224.776 492.521 224.484 501.36 223.233V245.372ZM409.053 131.302V110.289H501.36V131.302H409.053ZM70.1583 497.372L128.694 317.261H166.342L224.878 497.372H197.737L143.829 333.021H150.583L97.3 497.372H70.1583ZM100.552 456.722V432.207H194.61V456.722H100.552ZM247.318 497.372V317.261H320.113C321.864 317.261 324.032 317.345 326.617 317.511C329.202 317.595 331.662 317.845 333.996 318.262C344.002 319.846 352.341 323.265 359.012 328.518C365.766 333.771 370.811 340.401 374.146 348.405C377.481 356.41 379.149 365.249 379.149 374.922C379.149 384.678 377.481 393.558 374.146 401.563C370.811 409.568 365.766 416.197 359.012 421.45C352.341 426.704 344.002 430.122 333.996 431.707C331.662 432.04 329.16 432.29 326.492 432.457C323.907 432.624 321.78 432.707 320.113 432.707H273.459V497.372H247.318ZM273.459 407.942H319.112C320.78 407.942 322.614 407.859 324.616 407.692C326.7 407.525 328.66 407.233 330.494 406.816C335.831 405.566 340.125 403.273 343.377 399.937C346.629 396.518 348.964 392.599 350.381 388.18C351.799 383.761 352.508 379.341 352.508 374.922C352.508 370.502 351.799 366.125 350.381 361.789C348.964 357.369 346.629 353.492 343.377 350.157C340.125 346.738 335.831 344.403 330.494 343.152C328.66 342.652 326.7 342.318 324.616 342.152C322.614 341.985 320.78 341.901 319.112 341.901H273.459V407.942ZM406.654 497.372V317.261H432.795V497.372H406.654Z" fill="white"/>
</svg>
