<svg width="475" height="448" viewBox="0 0 475 448" fill="none" xmlns="http://www.w3.org/2000/svg">
<path d="M0 0H448V224C448 347.712 347.712 448 224 448H0V0Z" fill="#A259FF"/>
<path d="M188 162.6V129H59V345H92.9V253.8H170V220.2H92.9V162.6H188ZM217.906 126.3V158.1H251.806V126.3H217.906ZM217.906 183V345H251.806V183H217.906ZM412.55 183V197.1C399.65 185.4 381.95 178.5 363.05 178.5C340.85 178.5 319.85 187.5 306.35 204.3C293.45 220.5 287.75 242.1 287.75 264C287.75 285.6 292.55 306.6 306.35 323.4C319.55 340.2 340.55 349.5 362.15 349.5C379.85 349.5 395.75 344.7 408.35 334.8V350.7C408.65 364.8 405.95 372.9 396.65 380.1C389.15 386.1 377.75 389.4 366.65 389.4C358.25 389.4 347.75 386.4 341.15 380.1C337.85 377.4 335.45 374.7 333.35 371.1L302.15 386.1C307.85 396 317.15 404.1 326.75 409.2C337.25 417 352.85 421.2 366.35 421.2C381.65 421.2 397.85 418.5 414.05 408.3C433.55 396 442.25 377.1 442.25 351V183H412.55ZM367.25 319.2C354.05 319.2 340.85 314.1 333.05 302.7C326.15 293.1 323.45 279 323.45 264C323.45 249 326.75 234.6 333.65 225C341.45 213.6 353.75 208.8 368.15 208.8C381.05 208.8 392.75 213.3 400.25 222.6C408.95 232.8 412.55 248.1 412.55 264C412.55 279.6 408.95 295.2 400.25 305.1C392.45 314.4 380.45 319.2 367.25 319.2Z" fill="white"/>
</svg>
