<svg width="599" height="449" viewBox="0 0 599 449" fill="none" xmlns="http://www.w3.org/2000/svg">
<path fill-rule="evenodd" clip-rule="evenodd" d="M260 448.5H599L599 0.499786L260 0.499756L260 239.082L4.57764e-05 0.499763L0 448.5L260 240.799V448.5Z" fill="#F7742B"/>
<path d="M128.8 146C136 144.5 145 144.8 152.8 146V116.6C129.1 114.2 106 115.4 89.8 130.7C77.5 143.3 74.8 160.4 74.8 173.3V174.5H40V201.2H74.8V336.5H108.7V201.2H152.8V174.5H108.7V170.6C108.7 157.4 112.9 148.4 128.8 146ZM184.188 117.8V149.6H218.088V117.8H184.188ZM184.188 174.5V336.5H218.088V174.5H184.188ZM391.131 217.1C385.431 200.6 372.531 185.6 356.931 178.1C346.131 172.4 333.831 170 322.731 170C311.631 170 299.931 170.6 287.631 176C271.431 182.9 259.431 198.5 259.431 217.4C259.431 225.2 262.131 236 268.731 242.6C275.031 250.4 286.131 256.1 296.031 259.1C302.931 261.8 309.231 263.6 334.431 270.5C343.431 272.9 347.331 274.1 353.331 277.7C358.431 281 361.431 286.1 361.431 290.9C361.431 296.9 358.731 301.4 353.331 305C347.631 309.5 335.331 311.3 327.231 311.3C315.231 311.3 301.431 308.3 293.031 298.4C288.531 293.3 284.931 282.8 284.331 276.2L252.531 284C257.931 300.2 258.831 307.7 269.631 319.4C284.631 335.6 303.831 341 326.931 341C342.531 341 356.631 338.6 370.131 330.2C383.631 322.1 392.331 306.5 392.331 291.2C392.331 276.8 385.731 265.7 373.431 256.4C365.031 249.8 354.231 245 342.231 242.3C329.631 239 317.031 235.4 307.731 232.1C301.431 230 297.831 228.5 294.831 226.4C291.831 223.7 290.031 221.3 290.031 216.2C290.031 210.5 295.431 205.4 300.531 203C306.231 200.6 313.431 199.4 320.931 199.4C328.131 199.4 337.131 201.8 343.131 205.1C350.931 209.3 356.031 216.5 359.331 224.9L391.131 217.1ZM547.506 186.2C534.606 175.4 516.306 169.4 499.506 170.3C484.206 170.9 467.406 176.3 454.806 187.4L453.906 188.3V120.5H423.906V336.5H457.806V265.7C457.806 254.3 458.106 242.6 459.906 234.2C461.706 224.6 466.206 216.2 472.806 210.8C479.106 206 486.606 203.3 495.306 203C506.706 202.7 516.306 205.7 522.906 211.7C534.306 221.6 536.706 237.8 536.706 256.1V336.5H570.906V256.1C571.206 227.3 567.906 203.9 547.506 186.2Z" fill="white"/>
</svg>
