<svg width="497" height="522" viewBox="0 0 497 522" fill="none" xmlns="http://www.w3.org/2000/svg">
<path d="M0 78C0 59.7746 14.7746 45 33 45H448V390C448 446.885 401.885 493 345 493H173C77.4548 493 0 415.545 0 320V78Z" fill="#6C6450"/>
<path d="M162.8 107.6V134.9H215C212.9 147.8 208.7 159.8 201.2 170C189.5 185.6 170 193.7 149.9 193.4C129.8 193.7 110.3 185.6 98.3 170C86.6 154.4 83 133.4 82.7 113C83 92.6 86.6 71.6 98.3 56C110.3 40.4 129.8 32.3 149.9 32.6C170 32.3 189.5 40.4 201.2 56C203.3 59 205.1 62 206.9 65.3L238.1 51.2C235.1 45.5 231.8 40.4 228.2 35.6C209.6 12.8 181.4 0.499983 149.9 0.499983C119 0.499983 89.6 12.2 71.9 35.6C54.2 57.5 47.6 83.9 47 113C47.6 140.9 53.9 168.5 71.9 190.4C89.6 214.1 119 225.5 149.9 225.5C180.5 225.5 209.3 214.1 228.2 190.4C245 169.4 251.9 142.7 252.8 114.8V107.6H162.8ZM288.781 2.29999V34.1H322.681V2.29999H288.781ZM288.781 59V221H322.681V59H288.781ZM266.9 261.9C256.4 253.2 242.6 247.8 229.7 247.8C209.6 247.8 190.4 257.7 179.9 274.5C177.2 270 173.9 265.8 169.4 261.9C158.9 253.2 145.1 247.8 132.2 247.8C114.2 247.8 97.1 255.6 86 269.4V252H56V414H89.9V313.5C89.9 304.5 91.1 296.7 98 288.6C103.7 282 112.7 278.1 122 278.1C130.1 278.1 138.2 281.1 143.6 286.8C151.7 294.6 153.5 301.8 153.5 315V414H187.4V315V313.5C187.4 304.5 188.6 296.7 195.5 288.6C201.2 282 210.2 278.1 219.5 278.1C227.6 278.1 235.7 281.1 241.1 286.8C249.2 294.6 251 301.8 251 315V414H284.9V315C284.9 293.1 282.2 275.1 266.9 261.9ZM457.138 273.3C443.638 256.5 422.338 247.5 400.138 247.5C381.538 247.5 363.838 254.4 350.938 265.8V252H320.938V486H354.838V403.5C367.138 413.4 383.338 418.5 401.038 418.5C422.938 418.5 443.638 409.2 457.138 392.4C470.638 375.6 475.438 354.6 475.438 333C475.438 311.1 469.738 289.5 457.138 273.3ZM430.138 371.7C422.338 383.1 409.138 388.2 396.238 388.2C382.738 388.2 371.038 383.4 362.938 374.1C354.538 364.2 350.938 348.6 350.938 333C350.938 317.1 354.538 301.8 362.938 291.6C370.438 282.3 382.138 277.8 395.038 277.8C409.738 277.8 422.038 282.6 429.838 294C436.738 303.6 439.738 318 439.738 333C439.738 348 437.038 362.1 430.138 371.7Z" fill="white"/>
</svg>
