<svg width="455" height="472" viewBox="0 0 455 472" fill="none" xmlns="http://www.w3.org/2000/svg">
<rect x="68" width="387" height="472" rx="68" fill="#6AD7E5"/>
<path d="M127.8 243.6V270.9H180C177.9 283.8 173.7 295.8 166.2 306C154.5 321.6 135 329.7 114.9 329.4C94.8 329.7 75.3 321.6 63.3 306C51.6 290.4 48 269.4 47.7 249C48 228.6 51.6 207.6 63.3 192C75.3 176.4 94.8 168.3 114.9 168.6C135 168.3 154.5 176.4 166.2 192C168.3 195 170.1 198 171.9 201.3L203.1 187.2C200.1 181.5 196.8 176.4 193.2 171.6C174.6 148.8 146.4 136.5 114.9 136.5C84 136.5 54.6 148.2 36.9 171.6C19.2 193.5 12.6 219.9 12 249C12.6 276.9 18.9 304.5 36.9 326.4C54.6 350.1 84 361.5 114.9 361.5C145.5 361.5 174.3 350.1 193.2 326.4C210 305.4 216.9 278.7 217.8 250.8V243.6H127.8ZM321.881 361.5C345.881 361.5 367.781 352.8 382.481 334.8C396.281 317.4 401.981 298.5 401.981 276C401.981 254.4 396.581 234.3 382.481 217.2C368.081 199.2 345.281 190.5 321.881 190.5C298.181 190.5 275.381 199.8 260.981 217.2C248.081 233.1 241.781 253.8 241.781 276C241.781 297.6 247.181 317.7 260.981 334.8C275.681 352.5 298.181 361.5 321.881 361.5ZM355.781 314.1C347.981 324.3 335.381 329.7 321.881 329.7C308.081 329.7 295.481 324.3 287.981 314.1C280.181 303.9 277.481 289.8 277.481 276C277.481 262.2 280.181 247.8 287.981 237.6C295.481 227.4 308.081 222.3 321.881 222.3C335.381 222.3 347.981 227.4 355.781 237.6C363.581 247.8 366.281 262.2 366.281 276C366.281 289.8 363.581 303.9 355.781 314.1Z" fill="white"/>
</svg>
