<svg width="588" height="526" viewBox="0 0 588 526" fill="none" xmlns="http://www.w3.org/2000/svg">
<path d="M112.235 140.16L325 17.3205L537.765 140.16V385.84L325 508.68L112.235 385.84V140.16Z" stroke="#E535AB" stroke-width="30"/>
<path d="M104.976 376.32C91.056 376.32 78.24 373.92 66.528 369.12C54.816 364.224 44.64 357.12 36 347.808C27.36 338.496 20.64 327.168 15.84 313.824C11.04 300.48 8.64 285.312 8.64 268.32C8.64 245.952 12.72 226.752 20.88 210.72C29.04 194.592 40.368 182.208 54.864 173.568C69.36 164.832 86.064 160.464 104.976 160.464C129.36 160.464 148.8 166.128 163.296 177.456C177.888 188.784 187.824 204.432 193.104 224.4L162.576 229.872C158.352 217.488 151.536 207.6 142.128 200.208C132.72 192.816 120.912 189.072 106.704 188.976C92.016 188.88 79.776 192.144 69.984 198.768C60.288 205.392 52.992 214.704 48.096 226.704C43.2 238.608 40.704 252.48 40.608 268.32C40.512 284.16 42.912 298.032 47.808 309.936C52.704 321.744 60.048 330.96 69.84 337.584C79.728 344.208 92.016 347.568 106.704 347.664C118.512 347.856 128.64 345.696 137.088 341.184C145.632 336.576 152.4 329.856 157.392 321.024C162.384 312.192 165.6 301.344 167.04 288.48H126.72V264.288H199.008C199.2 266.016 199.344 268.32 199.44 271.2C199.536 273.984 199.584 275.76 199.584 276.528C199.584 295.728 195.888 312.864 188.496 327.936C181.104 343.008 170.352 354.864 156.24 363.504C142.128 372.048 125.04 376.32 104.976 376.32ZM290.061 376.32C275.565 376.32 263.037 372.72 252.477 365.52C242.013 358.32 233.901 348.528 228.141 336.144C222.477 323.664 219.645 309.648 219.645 294.096C219.645 278.448 222.525 264.48 228.285 252.192C234.045 239.808 242.205 230.064 252.765 222.96C263.421 215.76 276.045 212.16 290.637 212.16C305.325 212.16 317.661 215.76 327.645 222.96C337.725 230.064 345.309 239.808 350.397 252.192C355.581 264.576 358.173 278.544 358.173 294.096C358.173 309.648 355.581 323.616 350.397 336C345.213 348.384 337.581 358.224 327.501 365.52C317.421 372.72 304.941 376.32 290.061 376.32ZM294.237 349.104C304.125 349.104 312.189 346.752 318.429 342.048C324.669 337.344 329.229 330.864 332.109 322.608C334.989 314.352 336.429 304.848 336.429 294.096C336.429 283.344 334.941 273.84 331.965 265.584C329.085 257.328 324.573 250.896 318.429 246.288C312.381 241.68 304.653 239.376 295.245 239.376C285.261 239.376 277.053 241.824 270.621 246.72C264.189 251.616 259.389 258.192 256.221 266.448C253.149 274.704 251.613 283.92 251.613 294.096C251.613 304.368 253.149 313.68 256.221 322.032C259.389 330.288 264.093 336.864 270.333 341.76C276.669 346.656 284.637 349.104 294.237 349.104ZM332.973 441.12V328.368H336.429V216.48H363.213V441.12H332.973ZM406.384 372V160.32H436.48V372H406.384Z" fill="#E535AB"/>
</svg>
