<svg width="622" height="499" viewBox="0 0 622 499" fill="none" xmlns="http://www.w3.org/2000/svg">
<path d="M87 51H535V275C535 398.712 434.712 499 311 499C187.288 499 87 398.712 87 275V51Z" fill="#E44D26"/>
<path d="M162.9 90V197.7H57.9V90H24V306H57.9V229.5H162.9V306H196.8V90H162.9ZM340.181 170.7V144H292.181V99H258.581V144H223.781V170.7H258.581V240.9C258.581 257.7 259.181 272.1 265.481 284.4C271.781 296.4 282.881 303.3 297.581 307.2C308.981 309.9 328.181 309.3 340.181 306V276.6C331.481 278.1 321.581 278.4 313.481 277.5C306.581 276.9 299.681 273 296.081 266.7C292.181 260.7 292.181 251.7 292.181 238.8V170.7H340.181ZM587.119 153.9C576.619 145.2 562.819 139.8 549.919 139.8C529.819 139.8 510.619 149.7 500.119 166.5C497.419 162 494.119 157.8 489.619 153.9C479.119 145.2 465.319 139.8 452.419 139.8C434.419 139.8 417.319 147.6 406.219 161.4V144H376.219V306H410.119V205.5C410.119 196.5 411.319 188.7 418.219 180.6C423.919 174 432.919 170.1 442.219 170.1C450.319 170.1 458.419 173.1 463.819 178.8C471.919 186.6 473.719 193.8 473.719 207V306H507.619V207V205.5C507.619 196.5 508.819 188.7 515.719 180.6C521.419 174 530.419 170.1 539.719 170.1C547.819 170.1 555.919 173.1 561.319 178.8C569.419 186.6 571.219 193.8 571.219 207V306H605.119V207C605.119 185.1 602.419 167.1 587.119 153.9Z" fill="white"/>
</svg>
