<svg id="logo" viewBox="0 0 500 500" width="500" height="500" version="1.1" xmlns="http://www.w3.org/2000/svg" xmlns:xlink="http://www.w3.org/1999/xlink" style="-webkit-print-color-adjust: exact;"><g id="shape-32b58ec0-d370-11ec-b250-e3a1748e4694" clip-path="url(#frame-clip-32b58ec0-d370-11ec-b250-e3a1748e4694-0e598d60-d37f-11ec-abfb-bf8c317ba873)"><defs><clipPath id="frame-clip-32b58ec0-d370-11ec-b250-e3a1748e4694-0e598d60-d37f-11ec-abfb-bf8c317ba873" class="frame-clip"><rect x="0" y="0" width="500" height="500"/></clipPath></defs><g id="shape-5311ad90-d373-11ec-b250-e3a1748e4694"><path d="M459.0644750762949,195.88693327607893C406.446839922889,109.6402661197701,-20.798002514757172,44.06308340218948,28.417048482338032,100.19325988167941C77.63209947943324,156.3234363611689,284.8018877959835,224.91551847301548,296.8793300072957,225.69237568355356C235.9908668633916,248.92835512570105,72.44586246873814,293.88713590911925,109.68308187877301,321.19372558544023C146.92030128880697,348.5003152617612,313.36423394286066,305.4447381052771,313.1179043889051,305.98472534027655C268.59954322969725,343.94669751088054,216.9324401953645,453.55706932203,273.910296723418,427.3645589608677C363.8086756085445,386.03976320957554,489.72385265577896,246.1418283544756,459.0644750762949,195.88693327607893ZZ" style="fill: rgb(22, 206, 198);"/></g><g id="shape-32b58ec4-d370-11ec-b250-e3a1748e4694"><g><path d="M770 5335 l0 -3455 575 0 575 0 0 3455 0 3455 -575 0 -575 0 0 -3455z
M11990 5335 l0 -3455 510 0 510 0 0 191 c0 185 1 191 19 178 10 -8 54 -43 97
-78 412 -333 1007 -481 1649 -410 518 58 951 269 1310 640 265 274 448 576
584 963 230 654 236 1505 16 2169 -156 471 -433 889 -770 1162 -329 266 -653
411 -1080 482 -159 26 -613 26 -770 0 -331 -56 -583 -149 -810 -301 -54 -36
-100 -66 -102 -66 -2 0 -3 446 -3 990 l0 990 -580 0 -580 0 0 -3455z m2565
816 c288 -53 497 -174 684 -396 186 -220 308 -513 367 -880 25 -157 30 -537
10 -715 -52 -453 -201 -812 -435 -1050 -241 -244 -487 -339 -881 -340 -390 0
-643 94 -868 322 -213 217 -329 489 -399 938 -26 166 -26 712 0 885 61 410
170 685 352 893 231 263 526 379 930 367 72 -2 180 -13 240 -24z M5745 7179
c-313 -17 -608 -106 -881 -267 -125 -73 -236 -161 -361 -288 l-123 -123 0 279
0 280 -510 0 -510 0 0 -2590 0 -2590 580 0 580 0 3 1713 c3 1881 -1 1734 63
1925 101 304 353 547 637 616 170 41 391 40 563 -4 312 -80 545 -324 643 -673
54 -190 52 -141 51 -1924 l-1 -1653 575 0 576 0 3 1703 c3 1855 0 1738 58
1917 25 77 88 206 131 268 79 115 224 240 355 306 251 126 640 121 904 -14
213 -108 380 -322 458 -585 58 -197 55 -111 58 -1927 l4 -1668 570 0 570 0 -4
1873 c-4 2002 -1 1885 -51 2112 -74 341 -226 626 -456 855 -320 321 -708 462
-1269 461 -426 0 -799 -117 -1131 -354 -111 -79 -310 -281 -380 -385 -30 -45
-57 -81 -60 -82 -3 0 -19 26 -37 58 -128 232 -371 459 -634 592 -173 88 -446
156 -660 165 -68 3 -137 7 -154 8 -16 2 -88 0 -160 -4z" transform="translate(18, 107) scale(0.25, 0.25) translate(0.000000,1132.000000) scale(0.100000,-0.100000)" fill="#394b5f" stroke="none"/></g></g></g></svg>
