<svg width="506" height="448" viewBox="0 0 506 448" fill="none" xmlns="http://www.w3.org/2000/svg">
<rect width="448" height="448" fill="#320008"/>
<path d="M245 109V325H278.9V109H245ZM435.444 109V173.5C423.144 163.9 406.944 158.5 390.144 158.5C367.944 158.5 346.944 167.5 333.444 184.3C320.544 200.5 314.844 222.1 314.844 244C314.844 265.6 319.644 286.6 333.444 303.4C346.644 320.2 367.644 329.5 389.244 329.5C409.044 329.5 426.744 323.2 439.644 311.2V325H469.344V109H435.444ZM427.344 285.1C419.544 294.4 407.544 299.2 394.344 299.2C381.144 299.2 367.944 294.1 360.144 282.7C353.244 273.1 350.544 259 350.544 244C350.544 229 353.844 214.6 360.744 205C368.544 193.6 380.844 188.8 395.244 188.8C408.144 188.8 419.844 193.3 427.344 202.6C436.044 212.8 439.644 228.1 439.644 244C439.644 259.6 436.044 275.2 427.344 285.1Z" fill="#EE3D8F"/>
</svg>
