<svg width="506" height="448" viewBox="0 0 506 448" fill="none" xmlns="http://www.w3.org/2000/svg">
<rect width="448" height="448" fill="#F0DB4F"/>
<path d="M320.2 110V256.1C320.2 276.5 320.2 285.5 312.1 300.5C300.4 320.3 283 330.5 257.8 330.5C246.4 330.5 235 328.1 225.4 322.1C210.7 313.7 200.5 299.3 196 283.4L229.3 275.3C230.8 282.5 235.3 288.8 241 293C245.8 296.6 251.8 298.7 257.8 298.7C267.4 298.7 278.2 293.3 282.7 283.4C285.7 276.5 285.7 271.4 285.7 256.1V110H320.2ZM493.6 206.6C487.9 190.1 475 175.1 459.4 167.6C448.6 161.9 436.3 159.5 425.2 159.5C414.1 159.5 402.4 160.1 390.1 165.5C373.9 172.4 361.9 188 361.9 206.9C361.9 214.7 364.6 225.5 371.2 232.1C377.5 239.9 388.6 245.6 398.5 248.6C405.4 251.3 411.7 253.1 436.9 260C445.9 262.4 449.8 263.6 455.8 267.2C460.9 270.5 463.9 275.6 463.9 280.4C463.9 286.4 461.2 290.9 455.8 294.5C450.1 299 437.8 300.8 429.7 300.8C417.7 300.8 403.9 297.8 395.5 287.9C391 282.8 387.4 272.3 386.8 265.7L355 273.5C360.4 289.7 361.3 297.2 372.1 308.9C387.1 325.1 406.3 330.5 429.4 330.5C445 330.5 459.1 328.1 472.6 319.7C486.1 311.6 494.8 296 494.8 280.7C494.8 266.3 488.2 255.2 475.9 245.9C467.5 239.3 456.7 234.5 444.7 231.8C432.1 228.5 419.5 224.9 410.2 221.6C403.9 219.5 400.3 218 397.3 215.9C394.3 213.2 392.5 210.8 392.5 205.7C392.5 200 397.9 194.9 403 192.5C408.7 190.1 415.9 188.9 423.4 188.9C430.6 188.9 439.6 191.3 445.6 194.6C453.4 198.8 458.5 206 461.8 214.4L493.6 206.6Z" fill="black"/>
</svg>
