<svg width="677" height="514" viewBox="0 0 677 514" fill="none" xmlns="http://www.w3.org/2000/svg">
<path fill-rule="evenodd" clip-rule="evenodd" d="M339 514C480.937 514 596 398.937 596 257C596 115.063 480.937 0 339 0C197.063 0 82 115.063 82 257C82 398.937 197.063 514 339 514ZM339 397C389.81 397 431 334.32 431 257C431 179.68 389.81 117 339 117C288.19 117 247 179.68 247 257C247 334.32 288.19 397 339 397Z" fill="#BCBCBC"/>
<path d="M124.2 149V295.1C124.2 315.5 124.2 324.5 116.1 339.5C104.4 359.3 87 369.5 61.8 369.5C50.4 369.5 39 367.1 29.4 361.1C14.7 352.7 4.5 338.3 0 322.4L33.3 314.3C34.8 321.5 39.3 327.8 45 332C49.8 335.6 55.8 337.7 61.8 337.7C71.4 337.7 82.2 332.3 86.7 322.4C89.7 315.5 89.7 310.4 89.7 295.1V149H124.2ZM297.6 245.6C291.9 229.1 279 214.1 263.4 206.6C252.6 200.9 240.3 198.5 229.2 198.5C218.1 198.5 206.4 199.1 194.1 204.5C177.9 211.4 165.9 227 165.9 245.9C165.9 253.7 168.6 264.5 175.2 271.1C181.5 278.9 192.6 284.6 202.5 287.6C209.4 290.3 215.7 292.1 240.9 299C249.9 301.4 253.8 302.6 259.8 306.2C264.9 309.5 267.9 314.6 267.9 319.4C267.9 325.4 265.2 329.9 259.8 333.5C254.1 338 241.8 339.8 233.7 339.8C221.7 339.8 207.9 336.8 199.5 326.9C195 321.8 191.4 311.3 190.8 304.7L159 312.5C164.4 328.7 165.3 336.2 176.1 347.9C191.1 364.1 210.3 369.5 233.4 369.5C249 369.5 263.1 367.1 276.6 358.7C290.1 350.6 298.8 335 298.8 319.7C298.8 305.3 292.2 294.2 279.9 284.9C271.5 278.3 260.7 273.5 248.7 270.8C236.1 267.5 223.5 263.9 214.2 260.6C207.9 258.5 204.3 257 201.3 254.9C198.3 252.2 196.5 249.8 196.5 244.7C196.5 239 201.9 233.9 207 231.5C212.7 229.1 219.9 227.9 227.4 227.9C234.6 227.9 243.6 230.3 249.6 233.6C257.4 237.8 262.5 245 265.8 253.4L297.6 245.6ZM401.475 369.5C425.475 369.5 447.375 360.8 462.075 342.8C475.875 325.4 481.575 306.5 481.575 284C481.575 262.4 476.175 242.3 462.075 225.2C447.675 207.2 424.875 198.5 401.475 198.5C377.775 198.5 354.975 207.8 340.575 225.2C327.675 241.1 321.375 261.8 321.375 284C321.375 305.6 326.775 325.7 340.575 342.8C355.275 360.5 377.775 369.5 401.475 369.5ZM435.375 322.1C427.575 332.3 414.975 337.7 401.475 337.7C387.675 337.7 375.075 332.3 367.575 322.1C359.775 311.9 357.075 297.8 357.075 284C357.075 270.2 359.775 255.8 367.575 245.6C375.075 235.4 387.675 230.3 401.475 230.3C414.975 230.3 427.575 235.4 435.375 245.6C443.175 255.8 445.875 270.2 445.875 284C445.875 297.8 443.175 311.9 435.375 322.1ZM638.194 214.7C625.294 203.9 606.994 197.9 590.194 198.8C574.894 199.4 558.094 204.8 545.494 215.9L544.594 216.8V203H514.594V365H548.494V294.2C548.494 282.8 548.794 271.1 550.594 262.7C552.394 253.1 556.894 244.7 563.494 239.3C569.794 234.5 577.294 231.8 585.994 231.5C597.394 231.2 606.994 234.2 613.594 240.2C624.994 250.1 627.394 266.3 627.394 284.6V365H661.594V284.6C661.894 255.8 658.594 232.4 638.194 214.7Z" fill="#131313"/>
</svg>
