<svg id="screenshot" viewBox="0 0 500 500" width="500" height="500" version="1.1" xmlns="http://www.w3.org/2000/svg" xmlns:xlink="http://www.w3.org/1999/xlink" style="-webkit-print-color-adjust: exact;"><g id="shape-6730cb00-d5c4-11ec-afb5-19fce0dde9fe" clip-path="url(#frame-clip-6730cb00-d5c4-11ec-afb5-19fce0dde9fe-9068bea0-d5c5-11ec-8a59-81f1403f08c5)"><defs><clipPath id="frame-clip-6730cb00-d5c4-11ec-afb5-19fce0dde9fe-9068bea0-d5c5-11ec-8a59-81f1403f08c5" class="frame-clip"><rect x="0" y="0" width="500" height="500"/></clipPath></defs><g id="shape-81c265f1-d5c4-11ec-afb5-19fce0dde9fe"><defs><radialGradient id="fill-color-gradient_9069d010-d5c5-11ec-8a59-81f1403f08c5" cx="0.5" cy="0.5" r="0.5" gradientTransform="matrix(-1,1.2246467991473532e-16,-1.2246467991473532e-16,-1,1,1)"><stop offset="0" stop-color="#B1B2B5" stop-opacity="1"/><stop offset="1" stop-color="#B1B2B5" stop-opacity="0"/></radialGradient></defs><ellipse cx="250" cy="250" rx="214" ry="214" transform="matrix(1,0,0,1,0,0)" style="fill: url(&quot;#fill-color-gradient_9069d010-d5c5-11ec-8a59-81f1403f08c5&quot;);"/></g><g id="shape-2a506c30-d5c5-11ec-afb5-19fce0dde9fe" width="800" xmlns:xlink="http://www.w3.org/1999/xlink" version="1.1" enable-background="new" height="800"><g id="shape-2a51cbc0-d5c5-11ec-afb5-19fce0dde9fe"><ellipse cx="250.5" cy="250.5" rx="209.5" ry="209.5" transform="matrix(1,0,0,1,0,0)" style="fill: rgb(255, 255, 255);"/></g><g id="shape-2a5219e0-d5c5-11ec-afb5-19fce0dde9fe"><defs><linearGradient x1="112" y1="512" x2="711.8644" y2="512" id="906ba4d0-d5c5-11ec-8a59-81f1403f08c5-linearGradient1353" gradientTransform="matrix(0.52375,0,0,0.52375,152.34663125000003,-115.81336875) translate(-324.595 187.405)" gradientUnits="userSpaceOnUse"><stop stop-color="#0ff" offset="0"/><stop stop-color="#0ff" stop-opacity="0" offset="1"/></linearGradient></defs><ellipse fill="url(#906ba4d0-d5c5-11ec-8a59-81f1403f08c5-linearGradient1353)" cx="250.5" cy="250.5" rx="209.5" ry="209.5" transform="matrix(0.8660254032313034,-0.4999999996806471,0.49999999968064696,0.8660254032313033,-91.68936342944357,158.81063641056062)"/></g><g id="shape-2a5240f0-d5c5-11ec-afb5-19fce0dde9fe"><defs><linearGradient x1="112" y1="512" x2="711.8644" y2="512" id="906c6820-d5c5-11ec-8a59-81f1403f08c5-linearGradient1355" gradientTransform="matrix(0.52375,0,0,0.52375,-17.660000000000004,518.6600000000001) translate(0,-1024)" gradientUnits="userSpaceOnUse"><stop stop-color="#f0f" offset="0"/><stop stop-color="#f0f" stop-opacity="0" offset="1"/></linearGradient></defs><ellipse fill="url(#906c6820-d5c5-11ec-8a59-81f1403f08c5-linearGradient1355)" cx="250.5" cy="250.5" rx="209.5" ry="209.5" transform="matrix(6.12323399182582e-17,0.9999999993612942,-0.9999999993612949,6.123233991825825e-17,500.9999998400043,1.599957499820448e-7)"/></g><g id="shape-2a51f2d0-d5c5-11ec-afb5-19fce0dde9fe"><defs><linearGradient x1="112" y1="512" x2="711.8644" y2="512" id="906cdd50-d5c5-11ec-8a59-81f1403f08c5-linearGradient1351" gradientTransform="matrix(0.52375,0,0,0.52375,616.81336875,348.65336875) translate(-1211.405 -699.405)" gradientUnits="userSpaceOnUse"><stop stop-color="#ff0" offset="0"/><stop stop-color="#ff0" stop-opacity="0" offset="1"/></linearGradient></defs><ellipse fill="url(#906cdd50-d5c5-11ec-8a59-81f1403f08c5-linearGradient1351)" cx="250.5" cy="250.5" rx="209.5" ry="209.5" transform="matrix(-0.8543306007479239,-0.5197299523293621,0.5197299523293618,-0.8543306007479236,334.3174624288498,594.7021685458601)" style="opacity: 0.6;"/></g></g><g id="shape-6730cb02-d5c4-11ec-afb5-19fce0dde9fe"><g><path d="M2930 5615 l0 -3455 575 0 575 0 2 1616 3 1615 600 -663 c330 -365
987 -1092 1460 -1616 l860 -952 723 0 c397 0 722 2 722 5 0 3 -305 344 -678
758 -374 413 -1083 1200 -1576 1747 -494 547 -900 1000 -903 1007 -2 6 463
544 1033 1195 571 651 1229 1401 1463 1668 233 267 433 495 444 508 l20 22
-701 0 -701 0 -89 -102 c-102 -118 -1484 -1722 -2197 -2551 l-480 -558 -3
1605 -2 1606 -575 0 -575 0 0 -3455z M14610 7469 c-331 -36 -571 -95 -799
-197 -466 -208 -834 -608 -1014 -1102 -20 -52 -37 -103 -39 -113 -3 -17 60
-39 497 -176 275 -87 509 -161 521 -165 19 -6 25 3 58 83 116 281 314 453 643
560 171 56 246 66 488 66 229 0 312 -10 467 -56 244 -72 422 -245 506 -494 21
-63 46 -185 57 -272 5 -49 4 -53 -17 -58 -13 -3 -228 -35 -478 -71 -1192 -171
-1679 -283 -2065 -476 -189 -94 -304 -176 -441 -312 -240 -240 -357 -477 -408
-827 -23 -156 -21 -417 4 -564 42 -247 155 -505 297 -680 114 -140 310 -301
475 -389 363 -194 908 -254 1453 -161 511 88 898 313 1232 717 l68 82 3 -352
2 -352 505 0 505 0 0 1568 c0 1573 -7 2010 -35 2242 -33 279 -119 504 -289
755 -74 110 -252 291 -361 367 -364 254 -900 390 -1525 387 -129 -1 -269 -5
-310 -10z m1376 -2946 c-3 -49 -8 -140 -11 -203 -10 -197 -36 -330 -102 -515
-111 -315 -348 -569 -688 -737 -305 -152 -787 -178 -1092 -60 -120 46 -268
172 -327 278 -52 92 -71 177 -71 309 1 151 23 230 93 330 81 115 180 195 349
279 226 113 517 184 1214 300 184 31 399 67 479 80 80 13 149 25 153 25 4 1 5
-38 3 -86z M11520 7354 c-355 -43 -643 -146 -883 -317 -176 -127 -283 -239
-412 -434 l-65 -97 0 417 0 417 -510 0 -510 0 0 -2590 0 -2590 580 0 580 0 0
1403 c0 895 4 1435 10 1492 66 572 345 966 823 1161 247 100 583 128 855 70
l62 -14 0 533 0 533 -22 7 c-26 7 -455 15 -508 9z" transform="translate(0, 105.18214470636684) scale(0.25, 0.25) translate(0.000000,1160.000000) scale(0.100000,-0.100000)" fill="#282828" stroke="none"/></g></g></g></svg>