<svg id="logo" viewBox="0 0 500 500" width="500" height="500" version="1.1" xmlns="http://www.w3.org/2000/svg" xmlns:xlink="http://www.w3.org/1999/xlink" style="-webkit-print-color-adjust: exact;"><g id="shape-49324fa0-d36e-11ec-b250-e3a1748e4694" clip-path="url(#frame-clip-49324fa0-d36e-11ec-b250-e3a1748e4694-29f5ba80-d37f-11ec-b1a2-39831b930926)"><defs><clipPath id="frame-clip-49324fa0-d36e-11ec-b250-e3a1748e4694-29f5ba80-d37f-11ec-b1a2-39831b930926" class="frame-clip"><rect x="0" y="0" width="500" height="500"/></clipPath></defs><g id="shape-db29b650-d36e-11ec-b250-e3a1748e4694"><rect rx="0" ry="0" x="58" y="72" transform="matrix(1,0,0,1,0,0)" width="356" height="356" style="fill: rgb(177, 178, 181); fill-opacity: 1;"/></g><g id="shape-debdb280-d36e-11ec-b250-e3a1748e4694"><g><path d="M770 5495 l0 -3455 2100 0 2100 0 0 540 0 540 -1525 0 -1525 0 0
2915 0 2915 -575 0 -575 0 0 -3455z M9627 6423 c-4 -1391 -7 -2945 -7 -3455
l0 -928 585 0 585 0 2 1252 3 1252 995 -1252 995 -1252 759 0 759 0 -20 23
c-11 12 -337 398 -724 857 -386 459 -748 889 -804 955 -55 66 -221 263 -368
438 -175 207 -265 321 -260 330 4 6 116 152 248 322 416 535 1733 2233 1740
2244 4 8 -201 11 -707 11 l-714 0 -943 -1242 c-519 -684 -947 -1244 -952
-1246 -5 -2 -9 850 -9 2107 l0 2111 -578 0 -579 0 -6 -2527z M8135 7229 c-204
-25 -444 -94 -608 -175 -285 -142 -489 -326 -673 -609 l-39 -60 -3 418 -2 417
-505 0 -505 0 0 -2590 0 -2590 575 0 574 0 4 1428 c3 1307 4 1436 21 1532 93
558 349 904 810 1094 245 102 588 130 864 72 l62 -14 0 533 0 533 -27 6 c-48
12 -464 15 -548 5z" transform="translate(115.72866914566498, 106.5) scale(0.25, 0.25) translate(0.000000,1148.000000) scale(0.100000,-0.100000)" fill="#000000" stroke="none"/></g></g></g></svg>
