<svg width="521" height="448" viewBox="0 0 521 448" fill="none" xmlns="http://www.w3.org/2000/svg">
<path d="M0 0H448V448H0V0Z" fill="#5BB2C6"/>
<path d="M213.5 129H38V160.8H108.8V345H142.7V160.8H213.5V129ZM204.14 273.3H329.24C329.54 270.3 329.84 267 329.84 264C329.84 242.4 323.84 221.4 310.64 205.2C295.94 187.2 273.74 178.5 250.04 178.5C226.34 178.5 203.84 187.5 189.14 205.2C176.24 221.4 169.94 243 169.94 265.5C169.94 286.2 175.94 306.3 189.14 322.8C203.54 340.2 227.54 349.5 251.84 349.5C276.44 349.5 296.54 340.8 311.54 323.7C315.14 319.5 317.24 315.9 319.34 312.3L290.54 296.7C289.34 299.4 287.24 302.1 285.14 304.5C276.74 314.7 264.14 320.1 250.04 320.1C235.94 320.1 222.44 314.4 214.64 303.6C208.34 295.2 205.34 284.4 204.14 273.3ZM250.04 207.9C264.14 207.9 277.34 213.3 285.14 224.1C290.24 230.4 292.94 238.2 294.44 246.3H205.34C206.84 238.2 209.84 230.4 214.64 224.1C222.44 213.3 235.94 207.9 250.04 207.9ZM426.118 235.8L499.618 129H458.218L405.418 205.8L352.318 129H310.918L384.418 235.8L308.818 345H350.518L405.418 265.5L460.318 345H501.418L426.118 235.8Z" fill="white"/>
</svg>
