<svg width="486" height="448" viewBox="0 0 486 448" fill="none" xmlns="http://www.w3.org/2000/svg">
<rect width="448" height="448" fill="#317EAC"/>
<path d="M208.9 110V294.2H305.5V326H175V110H208.9ZM459.006 206.6C453.306 190.1 440.406 175.1 424.806 167.6C414.006 161.9 401.706 159.5 390.606 159.5C379.506 159.5 367.806 160.1 355.506 165.5C339.306 172.4 327.306 188 327.306 206.9C327.306 214.7 330.006 225.5 336.606 232.1C342.906 239.9 354.006 245.6 363.906 248.6C370.806 251.3 377.106 253.1 402.306 260C411.306 262.4 415.206 263.6 421.206 267.2C426.306 270.5 429.306 275.6 429.306 280.4C429.306 286.4 426.606 290.9 421.206 294.5C415.506 299 403.206 300.8 395.106 300.8C383.106 300.8 369.306 297.8 360.906 287.9C356.406 282.8 352.806 272.3 352.206 265.7L320.406 273.5C325.806 289.7 326.706 297.2 337.506 308.9C352.506 325.1 371.706 330.5 394.806 330.5C410.406 330.5 424.506 328.1 438.006 319.7C451.506 311.6 460.206 296 460.206 280.7C460.206 266.3 453.606 255.2 441.306 245.9C432.906 239.3 422.106 234.5 410.106 231.8C397.506 228.5 384.906 224.9 375.606 221.6C369.306 219.5 365.706 218 362.706 215.9C359.706 213.2 357.906 210.8 357.906 205.7C357.906 200 363.306 194.9 368.406 192.5C374.106 190.1 381.306 188.9 388.806 188.9C396.006 188.9 405.006 191.3 411.006 194.6C418.806 198.8 423.906 206 427.206 214.4L459.006 206.6Z" fill="white"/>
</svg>
