<svg width="518" height="514" viewBox="0 0 518 514" fill="none" xmlns="http://www.w3.org/2000/svg">
<circle cx="259" cy="257" r="257" fill="#01007F"/>
<path d="M57.9 149V333.2H154.5V365H24V149H57.9ZM287.006 203V273.5V273.8C287.006 285.5 287.006 296.9 285.206 305.3C283.406 314.9 278.906 323.3 272.006 328.4C266.006 333.5 258.206 336.2 249.806 336.5C238.406 336.5 228.806 333.8 221.906 327.5C210.506 317.9 208.106 301.7 208.106 283.4V203H173.906V283.4C173.906 312.2 176.906 335.6 197.606 353C210.506 364.1 228.506 370.1 245.606 369.2C260.906 368.6 277.706 363.2 290.306 351.8L291.206 350.9V365H320.906V203H287.006ZM390.6 247.7C391.5 246.2 393 244.4 394.2 242.9C401.4 233.9 412.5 230.3 424.8 230.3C435 230 444.9 232.1 452.4 237.5C459 242 463.5 248.9 465 256.7L435.9 260.9C411.9 264.5 396.9 265.4 379.2 275C363.9 284 354 300.2 354 317.3C354 330.2 357.9 338.6 365.4 349.4C374.1 360.8 390.6 368.9 406.8 369.2C420 369.5 434.1 366.5 446.1 359.6C455.1 354.8 465.6 345.5 469.8 335.3V365H499.5V263.3C499.5 253.7 497.4 242.6 492 232.4C479.4 209 455.1 198.8 425.4 198.8C399.9 198.8 378 207.5 363.6 227.3C362.1 229.1 360.9 231.5 359.7 233L390.6 247.7ZM465.9 284.3C465.9 290.9 465.9 299 462 308.3C455.1 328.7 431.7 338.6 412.8 338.3C397.8 338 387.3 327.2 387.6 315.2C388.2 297.8 410.7 293.9 432 290.3C449.7 287 459.9 285.2 465.9 284.3Z" fill="white"/>
</svg>
