<svg id="logo" viewBox="0 0 500 500" width="500" height="500" version="1.1" xmlns="http://www.w3.org/2000/svg" xmlns:xlink="http://www.w3.org/1999/xlink" style="-webkit-print-color-adjust: exact;"><g id="shape-e97006f0-d36a-11ec-b250-e3a1748e4694" clip-path="url(#frame-clip-e97006f0-d36a-11ec-b250-e3a1748e4694-31112fc0-d37f-11ec-99f6-43250e121930)"><defs><clipPath id="frame-clip-e97006f0-d36a-11ec-b250-e3a1748e4694-31112fc0-d37f-11ec-99f6-43250e121930" class="frame-clip"><rect x="0" y="0" width="500" height="500"/></clipPath></defs><g id="shape-03e2a0d0-d36e-11ec-b250-e3a1748e4694"><g id="shape-5d594430-d36d-11ec-b250-e3a1748e4694"><path d="M168.51153562294536,332.1501313893093L317.5627261096988,68.89743655156872L394.14462889995275,193.7352788075591M394.14462889995275,193.73527880755944L470.72653169020646,318.5731210635497L168.51153562294525,332.15013138930965L168.51153562294456,332.15013138930965L168.5115356229452,332.1501313893093L394.14462889995275,193.73527880755944Z" style="fill: rgb(215, 140, 124); fill-opacity: 1;"/></g><g id="shape-d8b0b1f0-d36c-11ec-b250-e3a1748e4694"><rect rx="0" ry="0" x="29.667663242458786" y="42.57312106354959" transform="matrix(1,0,0,1,0,0)" width="251" height="251" style="fill: rgb(106, 116, 167); fill-opacity: 1;"/></g><g id="shape-dac3da80-d36c-11ec-b250-e3a1748e4694"><ellipse cx="238.58692802146385" cy="312.5731210635496" rx="136.5" ry="136.5" transform="matrix(1,0,0,1,0,0)" style="fill: rgb(142, 187, 173); fill-opacity: 1;"/></g></g><g id="shape-f0df56a0-d36c-11ec-b250-e3a1748e4694"><g><path d="M680 5495 l0 -3455 535 0 535 0 0 2217 c0 1419 3 2214 10 2207 5 -5
484 -1001 1064 -2214 l1055 -2205 224 -3 224 -2 343 717 c1342 2803 1772 3699
1781 3707 5 6 9 -805 9 -2202 l0 -2212 535 0 535 0 0 3450 0 3450 -516 -2
-516 -3 -417 -855 c-230 -470 -765 -1568 -1190 -2440 -426 -872 -777 -1589
-780 -1593 -7 -7 -269 525 -1942 3946 l-464 947 -512 0 -513 0 0 -3455z
M10650 7350 c-376 -44 -605 -101 -837 -210 -441 -206 -803 -604 -977 -1073
-45 -119 -53 -157 -36 -157 7 0 236 -70 509 -156 273 -86 502 -157 509 -158 7
0 26 32 42 72 127 313 357 499 740 597 147 37 264 48 455 42 516 -18 792 -185
914 -553 35 -104 70 -310 55 -323 -5 -4 -126 -24 -269 -45 -1125 -160 -1502
-231 -1925 -363 -736 -228 -1147 -681 -1219 -1345 -78 -706 230 -1298 828
-1593 426 -210 1109 -243 1670 -80 377 110 714 339 976 664 l60 74 3 -351 2
-352 506 0 505 0 -4 1782 c-4 1807 -6 1903 -42 2118 -55 330 -232 662 -480
898 -275 263 -660 421 -1215 498 -133 18 -651 28 -770 14z m1365 -3002 c-15
-321 -32 -431 -97 -623 -49 -146 -88 -226 -163 -330 -171 -238 -419 -421 -690
-510 -189 -62 -511 -87 -710 -56 -361 56 -584 254 -625 553 -34 241 51 440
250 588 251 185 563 277 1435 420 171 28 373 62 450 75 77 13 144 24 148 24 5
1 6 -63 2 -141z" transform="translate(59.33447421299957, 106.86759324269644) scale(0.25, 0.25) translate(0.000000,1148.000000) scale(0.100000,-0.100000)" fill="#000000" stroke="none"/></g></g></g></svg>
