<svg width="544" height="355" viewBox="0 0 544 355" fill="none" xmlns="http://www.w3.org/2000/svg">
<rect y="0.5" width="544" height="354" fill="black"/>
<path d="M263.506 154.4C253.006 145.7 239.206 140.3 226.306 140.3C206.206 140.3 187.006 150.2 176.506 167C173.806 162.5 170.506 158.3 166.006 154.4C155.506 145.7 141.706 140.3 128.806 140.3C110.806 140.3 93.706 148.1 82.606 161.9V144.5H52.606V306.5H86.506V206C86.506 197 87.706 189.2 94.606 181.1C100.306 174.5 109.306 170.6 118.606 170.6C126.706 170.6 134.806 173.6 140.206 179.3C148.306 187.1 150.106 194.3 150.106 207.5V306.5H184.006V207.5V206C184.006 197 185.206 189.2 192.106 181.1C197.806 174.5 206.806 170.6 216.106 170.6C224.206 170.6 232.306 173.6 237.706 179.3C245.806 187.1 247.606 194.3 247.606 207.5V306.5H281.506V207.5C281.506 185.6 278.806 167.6 263.506 154.4ZM459.744 221.6L417.744 263.3V90.5H391.044V263.6L349.044 221.6L332.544 237.8L404.244 309.5L476.244 237.8L459.744 221.6Z" fill="white"/>
</svg>
