<svg width="627" height="480" viewBox="0 0 627 480" fill="none" xmlns="http://www.w3.org/2000/svg">
<path fill-rule="evenodd" clip-rule="evenodd" d="M441.587 479.568C518.357 435.119 570 352.09 570 257C570 115.063 454.937 0 313 0C171.063 0 56 115.063 56 257C56 324.734 82.2033 386.348 125.026 432.258C134.088 429.688 90.5697 437.768 125.026 432.258C125.026 432.258 213.5 418.728 347.5 399.5L441.587 479.568ZM441.587 479.568L347.5 399.5C290.36 407.442 192.467 421.473 125.026 432.258C213 418.802 347.5 399.5 347.5 399.5C347.5 399.5 378 425.455 441.587 479.568Z" fill="#E0224E"/>
<path d="M54 149H24V365H58.5V211.1L163.5 365H193.5V149H159.3V302.9L54 149ZM242.006 293.3H367.106C367.406 290.3 367.706 287 367.706 284C367.706 262.4 361.706 241.4 348.506 225.2C333.806 207.2 311.606 198.5 287.906 198.5C264.206 198.5 241.706 207.5 227.006 225.2C214.106 241.4 207.806 263 207.806 285.5C207.806 306.2 213.806 326.3 227.006 342.8C241.406 360.2 265.406 369.5 289.706 369.5C314.306 369.5 334.406 360.8 349.406 343.7C353.006 339.5 355.106 335.9 357.206 332.3L328.406 316.7C327.206 319.4 325.106 322.1 323.006 324.5C314.606 334.7 302.006 340.1 287.906 340.1C273.806 340.1 260.306 334.4 252.506 323.6C246.206 315.2 243.206 304.4 242.006 293.3ZM287.906 227.9C302.006 227.9 315.206 233.3 323.006 244.1C328.106 250.4 330.806 258.2 332.306 266.3H243.206C244.706 258.2 247.706 250.4 252.506 244.1C260.306 233.3 273.806 227.9 287.906 227.9ZM501.9 245.6C496.2 229.1 483.3 214.1 467.7 206.6C456.9 200.9 444.6 198.5 433.5 198.5C422.4 198.5 410.7 199.1 398.4 204.5C382.2 211.4 370.2 227 370.2 245.9C370.2 253.7 372.9 264.5 379.5 271.1C385.8 278.9 396.9 284.6 406.8 287.6C413.7 290.3 420 292.1 445.2 299C454.2 301.4 458.1 302.6 464.1 306.2C469.2 309.5 472.2 314.6 472.2 319.4C472.2 325.4 469.5 329.9 464.1 333.5C458.4 338 446.1 339.8 438 339.8C426 339.8 412.2 336.8 403.8 326.9C399.3 321.8 395.7 311.3 395.1 304.7L363.3 312.5C368.7 328.7 369.6 336.2 380.4 347.9C395.4 364.1 414.6 369.5 437.7 369.5C453.3 369.5 467.4 367.1 480.9 358.7C494.4 350.6 503.1 335 503.1 319.7C503.1 305.3 496.5 294.2 484.2 284.9C475.8 278.3 465 273.5 453 270.8C440.4 267.5 427.8 263.9 418.5 260.6C412.2 258.5 408.6 257 405.6 254.9C402.6 252.2 400.8 249.8 400.8 244.7C400.8 239 406.2 233.9 411.3 231.5C417 229.1 424.2 227.9 431.7 227.9C438.9 227.9 447.9 230.3 453.9 233.6C461.7 237.8 466.8 245 470.1 253.4L501.9 245.6ZM611.475 229.7V203H563.475V158H529.875V203H495.075V229.7H529.875V299.9C529.875 316.7 530.475 331.1 536.775 343.4C543.075 355.4 554.175 362.3 568.875 366.2C580.275 368.9 599.475 368.3 611.475 365V335.6C602.775 337.1 592.875 337.4 584.775 336.5C577.875 335.9 570.975 332 567.375 325.7C563.475 319.7 563.475 310.7 563.475 297.8V229.7H611.475Z" fill="white"/>
</svg>
