<svg width="674" height="436" viewBox="0 0 674 436" fill="none" xmlns="http://www.w3.org/2000/svg">
<path d="M337 0L628.851 109V327L337 436L45.1494 327V109L337 0Z" fill="#E8C140"/>
<path d="M136 104H106V320H140.5V166.1L245.5 320H275.5V104H241.3V257.9L136 104ZM296.046 101.3V133.1H329.946V101.3H296.046ZM296.046 158V320H329.946V158H296.046ZM558.43 167.9C547.93 159.2 534.13 153.8 521.23 153.8C501.13 153.8 481.93 163.7 471.43 180.5C468.73 176 465.43 171.8 460.93 167.9C450.43 159.2 436.63 153.8 423.73 153.8C405.73 153.8 388.63 161.6 377.53 175.4V158H347.53V320H381.43V219.5C381.43 210.5 382.63 202.7 389.53 194.6C395.23 188 404.23 184.1 413.53 184.1C421.63 184.1 429.73 187.1 435.13 192.8C443.23 200.6 445.03 207.8 445.03 221V320H478.93V221V219.5C478.93 210.5 480.13 202.7 487.03 194.6C492.73 188 501.73 184.1 511.03 184.1C519.13 184.1 527.23 187.1 532.63 192.8C540.73 200.6 542.53 207.8 542.53 221V320H576.43V221C576.43 199.1 573.73 181.1 558.43 167.9Z" fill="black"/>
</svg>
