<svg width="521" height="448" viewBox="0 0 521 448" fill="none" xmlns="http://www.w3.org/2000/svg">
<path d="M485 448L276.5 0L37 448H485Z" fill="#2F495E"/>
<path d="M57.2969 144H27.2969V360H61.7969V206.1L166.797 360H196.797V144H162.597V297.9L57.2969 144ZM378.803 198H340.103L302.303 250.5L263.903 198H224.903L282.503 278.1L223.703 360H262.703L302.303 305.7L341.603 360H380.303L321.203 278.1L378.803 198ZM502.666 224.7V198H454.666V153H421.066V198H386.266V224.7H421.066V294.9C421.066 311.7 421.666 326.1 427.966 338.4C434.266 350.4 445.366 357.3 460.066 361.2C471.466 363.9 490.666 363.3 502.666 360V330.6C493.966 332.1 484.066 332.4 475.966 331.5C469.066 330.9 462.166 327 458.566 320.7C454.666 314.7 454.666 305.7 454.666 292.8V224.7H502.666Z" fill="#50D7B1"/>
</svg>
