<svg width="599" height="448" viewBox="0 0 599 448" fill="none" xmlns="http://www.w3.org/2000/svg">
<path fill-rule="evenodd" clip-rule="evenodd" d="M338 0L339 1.14087e-05V0.917597L599 239.5L339 447.201V448H338H0V1.14087e-05L338 0Z" fill="#71C405"/>
<path d="M151.9 340.5C182.2 340.5 211 329.1 229.9 305.4C247.6 283.5 254.2 257.1 254.5 228C253.9 199.5 248.2 172.8 229.9 150.3C211.3 127.2 182.5 115.8 151.9 115.5C121 115.5 91.9 126.9 73.6 150.3C56.2 171.9 49 199.5 49 228C49 256.2 56.2 283.8 73.6 305.4C91.9 328.8 121 340.5 151.9 340.5ZM151.9 308.4C131.8 308.7 112 300.6 100.6 285C88.3 269.4 84.7 248.4 84.7 228C85 207.6 88.3 186.3 100.6 171C112 155.4 131.8 147.3 151.9 147.6C172 147.3 191.5 155.4 202.9 171C214.9 186.3 218.8 207.6 218.8 228C218.8 248.4 214.9 269.4 202.9 285C191.5 300.6 172 308.7 151.9 308.4ZM427.9 210C425.5 205.2 422.5 200.7 418.9 196.2C404.2 178.5 382 169.5 358.3 169.5C335.2 169.5 313 177.9 297.7 196.2C284.2 213 278.5 233.4 278.5 255C278.5 276.3 284.2 297 297.7 313.5C312.4 331.5 334.9 340.8 358.3 340.2C381.7 340.8 404.5 331.2 418.9 313.5C422.5 309.3 425.2 304.8 427.9 300.3L396.1 286.5C394.9 288.9 393.7 291 392.2 293.1C384.4 303.3 371.8 308.4 358.3 308.4C344.8 308.4 332.2 303.3 324.7 293.1C316.9 282.9 314.5 268.8 314.2 255C314.5 241.2 316.9 227.1 324.7 216.9C332.2 206.4 344.8 201 358.3 201.3C371.8 201 384.4 206.4 392.2 216.9C393.7 219 395.2 221.4 396.4 223.8L427.9 210ZM530.144 145.5C537.344 144 546.344 144.3 554.144 145.5V116.1C530.444 113.7 507.344 114.9 491.144 130.2C478.844 142.8 476.144 159.9 476.144 172.8V174H441.344V200.7H476.144V336H510.044V200.7H554.144V174H510.044V170.1C510.044 156.9 514.244 147.9 530.144 145.5Z" fill="white"/>
</svg>
