<svg id="logo" viewBox="0 0 500 500" width="500" height="500" version="1.1" xmlns="http://www.w3.org/2000/svg" xmlns:xlink="http://www.w3.org/1999/xlink" style="-webkit-print-color-adjust: exact;"><g id="shape-e64c0dd0-d36e-11ec-b250-e3a1748e4694" clip-path="url(#frame-clip-e64c0dd0-d36e-11ec-b250-e3a1748e4694-21a520a0-d37f-11ec-b2e3-c3d10fbe3a8a)"><defs><clipPath id="frame-clip-e64c0dd0-d36e-11ec-b250-e3a1748e4694-21a520a0-d37f-11ec-b2e3-c3d10fbe3a8a" class="frame-clip"><rect x="0" y="0" width="500" height="500"/></clipPath></defs><g id="shape-e64c0dd1-d36e-11ec-b250-e3a1748e4694"><path d="M107,72L285,121L463,72L463,428L107,428L107,72Z" style="fill: rgb(203, 54, 216); fill-opacity: 1;"/></g><g id="shape-e64c0dd2-d36e-11ec-b250-e3a1748e4694"><g><path d="M680 5496 l0 -3456 570 0 570 0 0 1210 0 1209 1023 4 c1109 4 1090 3
1386 63 226 45 505 152 670 255 302 191 530 444 687 765 165 337 245 715 245
1159 0 336 -39 597 -131 878 -237 719 -754 1161 -1535 1312 -253 49 -218 48
-1902 52 l-1583 4 0 -3455z m3089 2359 c332 -49 547 -175 705 -415 55 -83 81
-133 111 -218 63 -177 89 -329 89 -522 -1 -478 -196 -862 -523 -1034 -134 -70
-274 -107 -476 -126 -64 -6 -472 -10 -982 -10 l-873 0 0 1170 0 1170 921 0
c777 0 938 -2 1028 -15z M14925 7364 c-319 -24 -510 -62 -743 -149 -240 -90
-491 -257 -692 -459 -58 -58 -108 -106 -112 -106 -5 0 -8 128 -8 285 l0 285
-510 0 -510 0 0 -2590 0 -2590 585 0 584 0 4 1508 c2 1389 4 1515 21 1612 64
380 190 651 392 839 178 167 386 253 679 280 127 13 333 -1 451 -29 98 -23
241 -83 309 -130 127 -87 260 -240 347 -400 68 -124 147 -370 177 -553 44
-258 44 -292 48 -1739 l4 -1388 580 0 580 0 -4 1573 c-3 1383 -5 1590 -20
1722 -59 530 -185 919 -405 1250 -143 215 -265 339 -471 476 -233 157 -496
251 -806 288 -90 11 -404 21 -480 15z M8765 7354 c-16 -2 -86 -11 -155 -20
-442 -56 -831 -216 -1180 -483 -109 -84 -339 -313 -417 -416 -313 -416 -481
-847 -550 -1415 -13 -109 -18 -219 -17 -440 0 -307 9 -416 55 -645 153 -770
644 -1423 1322 -1755 336 -165 645 -243 1072 -271 498 -32 953 62 1383 286
400 209 729 521 945 897 52 90 138 270 132 276 -3 3 -61 22 -128 42 -256 77
-973 293 -983 297 -7 2 -31 -30 -54 -72 -186 -337 -494 -562 -865 -631 -131
-24 -421 -30 -560 -10 -599 84 -974 500 -1080 1198 -8 54 -15 102 -15 108 0 7
623 10 1874 10 l1873 0 7 53 c11 99 6 542 -9 699 -37 393 -126 719 -279 1033
-158 323 -343 561 -593 767 -235 192 -544 345 -854 422 -208 52 -343 67 -629
71 -146 2 -278 1 -295 -1z m600 -1018 c177 -39 290 -84 404 -161 229 -153 391
-444 460 -826 12 -62 21 -126 21 -141 l0 -28 -1275 0 c-1208 0 -1275 1 -1275
18 0 9 13 69 29 132 136 547 436 871 911 985 63 15 149 31 190 35 120 13 454
4 535 -14z" transform="translate(22.427262584461005, 106.36759324269644) scale(0.25, 0.25) translate(0.000000,1148.000000) scale(0.100000,-0.100000)" fill="#3de0bc" stroke="none"/></g></g></g></svg>
