<svg width="530" height="448" viewBox="0 0 530 448" fill="none" xmlns="http://www.w3.org/2000/svg">
<rect width="448" height="448" fill="#061E26"/>
<path d="M360.9 178.6C360.6 163 354.9 147.4 345 135.4C336.9 124.6 325.5 116.8 312.6 112.6C305.7 110.2 297.9 109 290.4 109H195V325H228.9V248.2H290.4C312.6 248.2 333.3 237.7 345.9 221.2C355.2 209.5 361.2 193.9 360.9 178.6ZM318.3 202C311.4 211 300 216.4 290.1 216.4H228.9V140.8H290.1C299.7 140.8 310.2 146.2 316.5 153.4C322.8 160 326.1 169.3 326.4 178.6C326.7 187.3 323.4 195.4 318.3 202ZM517.538 205.6C511.838 189.1 498.938 174.1 483.338 166.6C472.538 160.9 460.238 158.5 449.138 158.5C438.038 158.5 426.338 159.1 414.038 164.5C397.838 171.4 385.838 187 385.838 205.9C385.838 213.7 388.538 224.5 395.138 231.1C401.438 238.9 412.538 244.6 422.438 247.6C429.338 250.3 435.638 252.1 460.838 259C469.838 261.4 473.738 262.6 479.738 266.2C484.838 269.5 487.838 274.6 487.838 279.4C487.838 285.4 485.138 289.9 479.738 293.5C474.038 298 461.738 299.8 453.638 299.8C441.638 299.8 427.838 296.8 419.438 286.9C414.938 281.8 411.338 271.3 410.738 264.7L378.938 272.5C384.338 288.7 385.238 296.2 396.038 307.9C411.038 324.1 430.238 329.5 453.338 329.5C468.938 329.5 483.038 327.1 496.538 318.7C510.038 310.6 518.738 295 518.738 279.7C518.738 265.3 512.138 254.2 499.838 244.9C491.438 238.3 480.638 233.5 468.638 230.8C456.038 227.5 443.438 223.9 434.138 220.6C427.838 218.5 424.238 217 421.238 214.9C418.238 212.2 416.438 209.8 416.438 204.7C416.438 199 421.838 193.9 426.938 191.5C432.638 189.1 439.838 187.9 447.338 187.9C454.538 187.9 463.538 190.3 469.538 193.6C477.338 197.8 482.438 205 485.738 213.4L517.538 205.6Z" fill="#26C9FF"/>
</svg>
