<svg width="637" height="396" viewBox="0 0 637 396" fill="none" xmlns="http://www.w3.org/2000/svg">
<ellipse cx="318.5" cy="220" rx="318.5" ry="152" fill="#6C7EB7"/>
<path d="M209.2 165.3C195.7 148.5 174.4 139.5 152.2 139.5C133.6 139.5 115.9 146.4 103 157.8V144H73V378H106.9V295.5C119.2 305.4 135.4 310.5 153.1 310.5C175 310.5 195.7 301.2 209.2 284.4C222.7 267.6 227.5 246.6 227.5 225C227.5 203.1 221.8 181.5 209.2 165.3ZM182.2 263.7C174.4 275.1 161.2 280.2 148.3 280.2C134.8 280.2 123.1 275.4 115 266.1C106.6 256.2 103 240.6 103 225C103 209.1 106.6 193.8 115 183.6C122.5 174.3 134.2 169.8 147.1 169.8C161.8 169.8 174.1 174.6 181.9 186C188.8 195.6 191.8 210 191.8 225C191.8 240 189.1 254.1 182.2 263.7ZM384.194 155.7C371.294 144.9 352.994 138.9 336.194 139.8C320.894 140.4 304.094 145.8 291.494 156.9L290.594 157.8V90H260.594V306H294.494V235.2C294.494 223.8 294.794 212.1 296.594 203.7C298.394 194.1 302.894 185.7 309.494 180.3C315.794 175.5 323.294 172.8 331.994 172.5C343.394 172.2 352.994 175.2 359.594 181.2C370.994 191.1 373.394 207.3 373.394 225.6V306H407.594V225.6C407.894 196.8 404.594 173.4 384.194 155.7ZM579.888 165.3C566.388 148.5 545.088 139.5 522.888 139.5C504.288 139.5 486.588 146.4 473.688 157.8V144H443.688V378H477.588V295.5C489.888 305.4 506.088 310.5 523.788 310.5C545.688 310.5 566.388 301.2 579.888 284.4C593.388 267.6 598.188 246.6 598.188 225C598.188 203.1 592.488 181.5 579.888 165.3ZM552.888 263.7C545.088 275.1 531.888 280.2 518.988 280.2C505.488 280.2 493.788 275.4 485.688 266.1C477.288 256.2 473.688 240.6 473.688 225C473.688 209.1 477.288 193.8 485.688 183.6C493.188 174.3 504.888 169.8 517.788 169.8C532.488 169.8 544.788 174.6 552.588 186C559.488 195.6 562.488 210 562.488 225C562.488 240 559.788 254.1 552.888 263.7Z" fill="black"/>
</svg>
