<svg width="566" height="448" viewBox="0 0 566 448" fill="none" xmlns="http://www.w3.org/2000/svg">
<path d="M2 224C2 100.288 102.288 0 226 0H450V448H2V224Z" fill="#EA2D2E"/>
<path d="M197.1 109H162.9V241C162.9 255.4 160.8 266.2 152.1 277.6C142.2 290.5 126.6 297.7 110.7 297.7C94.8 297.7 78.9 290.5 69 277.9C60.6 266.2 58.2 255.1 58.2 241V109L24 109.3V245.2C24 263.8 31.2 284.2 43.2 298.9C59.1 319 84.6 329.5 110.7 329.5C137.1 329.5 162.3 319.3 178.2 298.9C190.5 283.6 197.1 264.7 197.1 245.2V109ZM452.963 172.9C442.463 164.2 428.663 158.8 415.763 158.8C395.663 158.8 376.463 168.7 365.963 185.5C363.263 181 359.963 176.8 355.463 172.9C344.963 164.2 331.163 158.8 318.263 158.8C300.263 158.8 283.163 166.6 272.063 180.4V163H242.063V325H275.963V224.5C275.963 215.5 277.163 207.7 284.063 199.6C289.763 193 298.763 189.1 308.063 189.1C316.163 189.1 324.263 192.1 329.663 197.8C337.763 205.6 339.563 212.8 339.563 226V325H373.463V226V224.5C373.463 215.5 374.663 207.7 381.563 199.6C387.263 193 396.263 189.1 405.563 189.1C413.663 189.1 421.763 192.1 427.163 197.8C435.263 205.6 437.063 212.8 437.063 226V325H470.963V226C470.963 204.1 468.263 186.1 452.963 172.9ZM507 325V104.5H540.9V325H507Z" fill="black"/>
</svg>
