<svg width="587" height="448" viewBox="0 0 587 448" fill="none" xmlns="http://www.w3.org/2000/svg">
<path d="M44 129C44 57.7553 101.755 0 173 0H369C436.931 0 492 55.069 492 123V224C492 347.712 391.712 448 268 448C144.288 448 44 347.712 44 224V129Z" fill="#326690"/>
<path d="M189.9 178.6C189.6 163 183.9 147.4 174 135.4C165.9 124.6 154.5 116.8 141.6 112.6C134.7 110.2 126.9 109 119.4 109H24V325H57.9V248.2H119.4C141.6 248.2 162.3 237.7 174.9 221.2C184.2 209.5 190.2 193.9 189.9 178.6ZM147.3 202C140.4 211 129 216.4 119.1 216.4H57.9V140.8H119.1C128.7 140.8 139.2 146.2 145.5 153.4C151.8 160 155.1 169.3 155.4 178.6C155.7 187.3 152.4 195.4 147.3 202ZM334.238 163V177.1C321.338 165.4 303.638 158.5 284.738 158.5C262.538 158.5 241.538 167.5 228.038 184.3C215.138 200.5 209.438 222.1 209.438 244C209.438 265.6 214.238 286.6 228.038 303.4C241.238 320.2 262.238 329.5 283.838 329.5C301.538 329.5 317.438 324.7 330.038 314.8V330.7C330.338 344.8 327.638 352.9 318.338 360.1C310.838 366.1 299.438 369.4 288.338 369.4C279.938 369.4 269.438 366.4 262.838 360.1C259.538 357.4 257.138 354.7 255.038 351.1L223.838 366.1C229.538 376 238.838 384.1 248.438 389.2C258.938 397 274.538 401.2 288.038 401.2C303.338 401.2 319.538 398.5 335.738 388.3C355.238 376 363.938 357.1 363.938 331V163H334.238ZM288.938 299.2C275.738 299.2 262.538 294.1 254.738 282.7C247.838 273.1 245.138 259 245.138 244C245.138 229 248.438 214.6 255.338 205C263.138 193.6 275.438 188.8 289.838 188.8C302.738 188.8 314.438 193.3 321.938 202.6C330.638 212.8 334.238 228.1 334.238 244C334.238 259.6 330.638 275.2 321.938 285.1C314.138 294.4 302.138 299.2 288.938 299.2ZM534.131 205.6C528.431 189.1 515.531 174.1 499.931 166.6C489.131 160.9 476.831 158.5 465.731 158.5C454.631 158.5 442.931 159.1 430.631 164.5C414.431 171.4 402.431 187 402.431 205.9C402.431 213.7 405.131 224.5 411.731 231.1C418.031 238.9 429.131 244.6 439.031 247.6C445.931 250.3 452.231 252.1 477.431 259C486.431 261.4 490.331 262.6 496.331 266.2C501.431 269.5 504.431 274.6 504.431 279.4C504.431 285.4 501.731 289.9 496.331 293.5C490.631 298 478.331 299.8 470.231 299.8C458.231 299.8 444.431 296.8 436.031 286.9C431.531 281.8 427.931 271.3 427.331 264.7L395.531 272.5C400.931 288.7 401.831 296.2 412.631 307.9C427.631 324.1 446.831 329.5 469.931 329.5C485.531 329.5 499.631 327.1 513.131 318.7C526.631 310.6 535.331 295 535.331 279.7C535.331 265.3 528.731 254.2 516.431 244.9C508.031 238.3 497.231 233.5 485.231 230.8C472.631 227.5 460.031 223.9 450.731 220.6C444.431 218.5 440.831 217 437.831 214.9C434.831 212.2 433.031 209.8 433.031 204.7C433.031 199 438.431 193.9 443.531 191.5C449.231 189.1 456.431 187.9 463.931 187.9C471.131 187.9 480.131 190.3 486.131 193.6C493.931 197.8 499.031 205 502.331 213.4L534.131 205.6Z" fill="white"/>
</svg>
