<svg width="518" height="448" viewBox="0 0 518 448" fill="none" xmlns="http://www.w3.org/2000/svg">
<rect width="448" height="448" fill="#2A0034"/>
<path d="M360.9 178.6C360.6 163 354.9 147.4 345 135.4C336.9 124.6 325.5 116.8 312.6 112.6C305.7 110.2 297.9 109 290.4 109H195V325H228.9V248.2H290.4C312.6 248.2 333.3 237.7 345.9 221.2C355.2 209.5 361.2 193.9 360.9 178.6ZM318.3 202C311.4 211 300 216.4 290.1 216.4H228.9V140.8H290.1C299.7 140.8 310.2 146.2 316.5 153.4C322.8 160 326.1 169.3 326.4 178.6C326.7 187.3 323.4 195.4 318.3 202ZM467.138 158.8C456.038 159.1 444.638 162.1 435.338 169C428.438 173.8 423.338 179.5 419.438 186.1V163H389.438V325H423.338V242.2C423.338 225.7 425.738 211.9 435.938 201.7C442.238 195.1 451.838 190.9 464.138 190.3C474.638 189.7 484.538 191.2 492.338 194.2V162.7C483.938 159.7 475.538 158.2 467.138 158.8Z" fill="#EA77FF"/>
</svg>
