<svg width="587" height="448" viewBox="0 0 587 448" fill="none" xmlns="http://www.w3.org/2000/svg">
<path d="M492 319C492 390.245 434.245 448 363 448L167 448C99.069 448 44 392.931 44 325L44 224C44 100.288 144.288 -3.03979e-05 268 -1.95827e-05C391.712 -8.76747e-06 492 100.288 492 224L492 319Z" fill="#553027"/>
<path d="M189.9 178.6C189.6 163 183.9 147.4 174 135.4C165.9 124.6 154.5 116.8 141.6 112.6C134.7 110.2 126.9 109 119.4 109H24V325H57.9V248.2H119.4C141.6 248.2 162.3 237.7 174.9 221.2C184.2 209.5 190.2 193.9 189.9 178.6ZM147.3 202C140.4 211 129 216.4 119.1 216.4H57.9V140.8H119.1C128.7 140.8 139.2 146.2 145.5 153.4C151.8 160 155.1 169.3 155.4 178.6C155.7 187.3 152.4 195.4 147.3 202ZM325.538 163V233.5V233.8C325.538 245.5 325.538 256.9 323.738 265.3C321.938 274.9 317.438 283.3 310.538 288.4C304.538 293.5 296.738 296.2 288.338 296.5C276.938 296.5 267.338 293.8 260.438 287.5C249.038 277.9 246.638 261.7 246.638 243.4V163H212.438V243.4C212.438 272.2 215.438 295.6 236.138 313C249.038 324.1 267.038 330.1 284.138 329.2C299.438 328.6 316.238 323.2 328.838 311.8L329.738 310.9V325H359.438V163H325.538ZM517.331 163V177.1C504.431 165.4 486.731 158.5 467.831 158.5C445.631 158.5 424.631 167.5 411.131 184.3C398.231 200.5 392.531 222.1 392.531 244C392.531 265.6 397.331 286.6 411.131 303.4C424.331 320.2 445.331 329.5 466.931 329.5C484.631 329.5 500.531 324.7 513.131 314.8V330.7C513.431 344.8 510.731 352.9 501.431 360.1C493.931 366.1 482.531 369.4 471.431 369.4C463.031 369.4 452.531 366.4 445.931 360.1C442.631 357.4 440.231 354.7 438.131 351.1L406.931 366.1C412.631 376 421.931 384.1 431.531 389.2C442.031 397 457.631 401.2 471.131 401.2C486.431 401.2 502.631 398.5 518.831 388.3C538.331 376 547.031 357.1 547.031 331V163H517.331ZM472.031 299.2C458.831 299.2 445.631 294.1 437.831 282.7C430.931 273.1 428.231 259 428.231 244C428.231 229 431.531 214.6 438.431 205C446.231 193.6 458.531 188.8 472.931 188.8C485.831 188.8 497.531 193.3 505.031 202.6C513.731 212.8 517.331 228.1 517.331 244C517.331 259.6 513.731 275.2 505.031 285.1C497.231 294.4 485.231 299.2 472.031 299.2Z" fill="#EFCDA4"/>
</svg>
