<svg width="592" height="473" viewBox="0 0 592 473" fill="none" xmlns="http://www.w3.org/2000/svg">
<rect x="103" y="0.5" width="387" height="472" rx="35" fill="#2F6796"/>
<path d="M189.9 211.1C189.6 195.5 183.9 179.9 174 167.9C165.9 157.1 154.5 149.3 141.6 145.1C134.7 142.7 126.9 141.5 119.4 141.5H24V357.5H57.9V280.7H119.4C141.6 280.7 162.3 270.2 174.9 253.7C184.2 242 190.2 226.4 189.9 211.1ZM147.3 234.5C140.4 243.5 129 248.9 119.1 248.9H57.9V173.3H119.1C128.7 173.3 139.2 178.7 145.5 185.9C151.8 192.5 155.1 201.8 155.4 211.1C155.7 219.8 152.4 227.9 147.3 234.5ZM330.038 195.5L284.438 319.1L237.638 195.5H203.438L268.838 362.3C261.638 381.8 256.238 392 251.138 395.3C247.538 397.7 240.638 398.3 235.238 397.7L230.438 397.1V429.5H233.438C246.638 429.5 258.038 428.6 268.238 420.5C278.738 413 286.538 399.8 292.538 383.3L363.638 195.5H330.038ZM544.05 284.3C541.65 292.4 538.05 299.9 533.25 306.5C521.25 322.1 501.75 330.2 481.65 329.9C461.55 330.2 442.05 322.1 430.65 306.5C418.35 290.9 414.75 269.9 414.75 249.5C414.75 229.1 418.35 207.8 430.65 192.5C442.05 176.9 461.55 168.8 481.65 168.8C501.75 168.8 521.25 176.9 533.25 192.5C538.65 199.4 542.25 207.8 544.65 216.8L579.45 210.8C575.55 197.6 569.55 183.8 559.95 171.8C541.35 148.7 512.55 137 481.65 137C451.05 137 422.25 148.4 403.65 171.8C385.95 193.4 379.05 220.4 378.75 249.5C378.75 277.7 385.65 304.7 403.65 326.9C421.65 349.7 450.45 362 481.65 362C511.65 362 540.75 350.6 559.95 326.9C568.05 316.7 573.75 305.6 577.35 293.9L544.05 284.3Z" fill="#4B8BBE"/>
</svg>
