<svg width="634" height="634" viewBox="0 0 634 634" fill="none" xmlns="http://www.w3.org/2000/svg">
<rect y="316.784" width="448" height="448" transform="rotate(-45 0 316.784)" fill="#3774A7"/>
<rect x="151.74" y="468.524" width="448" height="233.407" transform="rotate(-45 151.74 468.524)" fill="#FFD140"/>
<path d="M320.9 272.383C320.6 256.783 314.9 241.183 305 229.183C296.9 218.383 285.5 210.583 272.6 206.383C265.7 203.983 257.9 202.783 250.4 202.783H155V418.783H188.9V341.983H250.4C272.6 341.983 293.3 331.483 305.9 314.983C315.2 303.283 321.2 287.683 320.9 272.383ZM278.3 295.783C271.4 304.783 260 310.183 250.1 310.183H188.9V234.583H250.1C259.7 234.583 270.2 239.983 276.5 247.183C282.8 253.783 286.1 263.083 286.4 272.383C286.7 281.083 283.4 289.183 278.3 295.783ZM461.038 256.783L415.438 380.383L368.638 256.783H334.438L399.838 423.583C392.638 443.083 387.238 453.283 382.138 456.583C378.538 458.983 371.638 459.583 366.238 458.983L361.438 458.383V490.783H364.438C377.638 490.783 389.038 489.883 399.238 481.783C409.738 474.283 417.538 461.083 423.538 444.583L494.638 256.783H461.038Z" fill="black"/>
</svg>
