<svg id="logo" viewBox="0 0 500 500" width="500" height="500" version="1.1" xmlns="http://www.w3.org/2000/svg" xmlns:xlink="http://www.w3.org/1999/xlink" style="-webkit-print-color-adjust: exact;"><g id="shape-b5969ce0-d36f-11ec-b250-e3a1748e4694" clip-path="url(#frame-clip-b5969ce0-d36f-11ec-b250-e3a1748e4694-1a733d30-d37f-11ec-9a6c-7d58a1925a6e)"><defs><clipPath id="frame-clip-b5969ce0-d36f-11ec-b250-e3a1748e4694-1a733d30-d37f-11ec-9a6c-7d58a1925a6e" class="frame-clip"><rect x="0" y="0" width="500" height="500"/></clipPath></defs><g id="shape-e65eb600-d36f-11ec-b250-e3a1748e4694"><ellipse cx="148" cy="141" rx="66" ry="66" transform="matrix(1,0,0,1,0,0)" style="fill: rgb(126, 176, 74); fill-opacity: 1;"/></g><g id="shape-ebf511e0-d36f-11ec-b250-e3a1748e4694"><ellipse cx="352" cy="146" rx="66" ry="66" transform="matrix(1,0,0,1,0,0)" style="fill: rgb(126, 176, 74); fill-opacity: 1;"/></g><g id="shape-d9ede580-d36f-11ec-b250-e3a1748e4694"><ellipse cx="250" cy="250" rx="184.5" ry="184.5" transform="matrix(1,0,0,1,0,0)" style="fill: rgb(176, 42, 94); fill-opacity: 1;"/></g><g id="shape-b5969ce2-d36f-11ec-b250-e3a1748e4694"><g><path d="M680 5336 l0 -3456 570 0 570 0 0 1210 0 1210 828 0 828 0 584 -1210
585 -1209 648 -1 c356 0 647 3 647 6 0 6 -229 477 -985 2029 -208 425 -284
590 -274 594 38 12 223 113 290 158 216 146 359 295 501 523 159 255 260 520
317 830 30 166 43 320 42 535 0 326 -40 591 -131 868 -237 718 -756 1162
-1535 1312 -254 49 -218 48 -1902 52 l-1583 4 0 -3455z m3178 2346 c279 -63
440 -162 589 -362 147 -197 228 -475 227 -785 -1 -396 -147 -752 -385 -940
-114 -90 -266 -157 -426 -189 -157 -32 -301 -36 -1170 -36 l-873 0 0 1170 0
1171 973 -4 c947 -3 974 -4 1065 -25z M6690 6550 l0 -510 415 0 415 0 0 -2080
0 -2080 575 0 575 0 0 2080 0 2080 905 0 905 0 0 -2080 0 -2080 575 0 575 0 0
2080 0 2080 415 0 415 0 0 510 0 510 -2885 0 -2885 0 0 -510z" transform="translate(92.87035185545119, 107) scale(0.25, 0.25) translate(0.000000,1132.000000) scale(0.100000,-0.100000)" fill="#000000" stroke="none"/></g></g></g></svg>
