<svg width="548" height="448" viewBox="0 0 548 448" fill="none" xmlns="http://www.w3.org/2000/svg">
<path d="M0.165195 58.5L254.272 448L548.001 58.5L501 2.64087e-05L49.9997 1.74985e-05L0.165195 58.5Z" fill="#A71400"/>
<path d="M259.994 186.2C269.294 174.5 275.294 158.9 274.994 143.6C274.694 128 268.994 112.4 259.094 100.4C250.994 89.6 239.594 81.8 226.694 77.6C219.794 75.2 211.994 74 204.494 74H109.094V290H142.994V213.2H199.394L236.594 290H274.994L234.194 206.6C244.394 201.8 253.394 194.9 259.994 186.2ZM142.994 105.8H204.194C213.794 105.8 224.294 111.2 230.594 118.4C236.894 125 240.194 134.3 240.494 143.6C240.794 152.3 237.494 160.4 232.394 167C225.494 176 214.094 181.4 204.194 181.4H142.994V105.8ZM435.513 149.3C422.013 132.5 400.713 123.5 378.513 123.5C361.713 123.5 345.513 128.9 333.213 138.5V74H299.313V290H329.313V276.2C342.213 288.5 359.613 294.5 379.413 294.5C401.313 294.5 422.013 285.2 435.513 268.4C449.013 251.6 453.813 230.6 453.813 209C453.813 187.1 448.113 165.5 435.513 149.3ZM408.513 247.7C400.713 259.1 387.513 264.2 374.613 264.2C361.113 264.2 349.413 259.4 341.313 250.1C332.913 240.2 329.313 224.6 329.313 209C329.313 193.1 332.913 177.8 341.313 167.6C348.813 158.3 360.513 153.8 373.413 153.8C388.113 153.8 400.413 158.6 408.213 170C415.113 179.6 418.113 194 418.113 209C418.113 224 415.413 238.1 408.513 247.7Z" fill="white"/>
</svg>
