<svg width="571" height="389" viewBox="0 0 571 389" fill="none" xmlns="http://www.w3.org/2000/svg">
<path d="M265 0L489.3 388.5H40.6992L265 0Z" fill="#C70001"/>
<path d="M565 0.5H266L375.5 190.5L565 0.5Z" fill="#C70001"/>
<path d="M175.072 198.2C184.372 186.5 190.372 170.9 190.072 155.6C189.772 140 184.072 124.4 174.172 112.4C166.072 101.6 154.672 93.8 141.772 89.6C134.872 87.2 127.072 86 119.572 86H24.1719V302H58.0719V225.2H114.472L151.672 302H190.072L149.272 218.6C159.472 213.8 168.472 206.9 175.072 198.2ZM58.0719 117.8H119.272C128.872 117.8 139.372 123.2 145.672 130.4C151.972 137 155.272 146.3 155.572 155.6C155.872 164.3 152.572 172.4 147.472 179C140.572 188 129.172 193.4 119.272 193.4H58.0719V117.8ZM285.491 306.5C309.491 306.5 331.391 297.8 346.091 279.8C359.891 262.4 365.591 243.5 365.591 221C365.591 199.4 360.191 179.3 346.091 162.2C331.691 144.2 308.891 135.5 285.491 135.5C261.791 135.5 238.991 144.8 224.591 162.2C211.691 178.1 205.391 198.8 205.391 221C205.391 242.6 210.791 262.7 224.591 279.8C239.291 297.5 261.791 306.5 285.491 306.5ZM319.391 259.1C311.591 269.3 298.991 274.7 285.491 274.7C271.691 274.7 259.091 269.3 251.591 259.1C243.791 248.9 241.091 234.8 241.091 221C241.091 207.2 243.791 192.8 251.591 182.6C259.091 172.4 271.691 167.3 285.491 167.3C298.991 167.3 311.591 172.4 319.391 182.6C327.191 192.8 329.891 207.2 329.891 221C329.891 234.8 327.191 248.9 319.391 259.1ZM552.509 198.2C561.809 186.5 567.809 170.9 567.509 155.6C567.209 140 561.509 124.4 551.609 112.4C543.509 101.6 532.109 93.8 519.209 89.6C512.309 87.2 504.509 86 497.009 86H401.609V302H435.509V225.2H491.909L529.109 302H567.509L526.709 218.6C536.909 213.8 545.909 206.9 552.509 198.2ZM435.509 117.8H496.709C506.309 117.8 516.809 123.2 523.109 130.4C529.409 137 532.709 146.3 533.009 155.6C533.309 164.3 530.009 172.4 524.909 179C518.009 188 506.609 193.4 496.709 193.4H435.509V117.8Z" fill="black"/>
</svg>
