<svg width="514" height="514" viewBox="0 0 514 514" fill="none" xmlns="http://www.w3.org/2000/svg">
<circle cx="257" cy="257" r="257" fill="black"/>
<path d="M254.9 261.2C264.2 249.5 270.2 233.9 269.9 218.6C269.6 203 263.9 187.4 254 175.4C245.9 164.6 234.5 156.8 221.6 152.6C214.7 150.2 206.9 149 199.4 149H104V365H137.9V288.2H194.3L231.5 365H269.9L229.1 281.6C239.3 276.8 248.3 269.9 254.9 261.2ZM137.9 180.8H199.1C208.7 180.8 219.2 186.2 225.5 193.4C231.8 200 235.1 209.3 235.4 218.6C235.7 227.3 232.4 235.4 227.3 242C220.4 251 209 256.4 199.1 256.4H137.9V180.8ZM422.319 245.6C416.619 229.1 403.719 214.1 388.119 206.6C377.319 200.9 365.019 198.5 353.919 198.5C342.819 198.5 331.119 199.1 318.819 204.5C302.619 211.4 290.619 227 290.619 245.9C290.619 253.7 293.319 264.5 299.919 271.1C306.219 278.9 317.319 284.6 327.219 287.6C334.119 290.3 340.419 292.1 365.619 299C374.619 301.4 378.519 302.6 384.519 306.2C389.619 309.5 392.619 314.6 392.619 319.4C392.619 325.4 389.919 329.9 384.519 333.5C378.819 338 366.519 339.8 358.419 339.8C346.419 339.8 332.619 336.8 324.219 326.9C319.719 321.8 316.119 311.3 315.519 304.7L283.719 312.5C289.119 328.7 290.019 336.2 300.819 347.9C315.819 364.1 335.019 369.5 358.119 369.5C373.719 369.5 387.819 367.1 401.319 358.7C414.819 350.6 423.519 335 423.519 319.7C423.519 305.3 416.919 294.2 404.619 284.9C396.219 278.3 385.419 273.5 373.419 270.8C360.819 267.5 348.219 263.9 338.919 260.6C332.619 258.5 329.019 257 326.019 254.9C323.019 252.2 321.219 249.8 321.219 244.7C321.219 239 326.619 233.9 331.719 231.5C337.419 229.1 344.619 227.9 352.119 227.9C359.319 227.9 368.319 230.3 374.319 233.6C382.119 237.8 387.219 245 390.519 253.4L422.319 245.6Z" fill="white"/>
</svg>
