<svg width="532" height="448" viewBox="0 0 532 448" fill="none" xmlns="http://www.w3.org/2000/svg">
<path d="M91.7857 80L514 0L422.214 368L0 448L91.7857 80Z" fill="#159497"/>
<path d="M183.3 164.6C175.2 143.3 161.4 126.2 143.4 116.3C129.6 108.5 113.4 105.8 98.4 105.5C84 105.5 69 107 54 114.2C35.1 122.9 20.7 142.7 20.7 164.9C20.7 179.3 26.1 194.9 38.1 205.4C48.9 215 63.3 220.7 78.9 225.2L118.8 236.9C128.4 239.6 135.6 243.2 141.3 248.6C146.7 253.4 149.4 260 149.4 266.9C149.4 274.4 146.7 282.8 138.6 288.8C129.9 295.4 114.6 298.7 102 298.7C85.5 298.7 67.5 293 57.9 279.2C51.9 272 48.3 261.8 46.2 250.7L12 260C15.3 273.8 20.7 288.5 30.6 301.1C47.7 322.4 72.3 330.5 100.8 330.5C122.7 330.5 142.5 327.5 158.4 316.4C174.6 305.6 185.1 286.4 185.1 267.8C185.1 251 178.2 235.7 165.9 224C156 214.7 144.3 208.7 126.6 203.6L88.5 192.5C77.4 189.2 66.6 185 61.8 179.9C58.2 176 56.1 171.2 56.1 165.8C56.1 157.4 60.9 148.7 69.6 143.9C77.1 139.4 87.3 137.3 98.1 137.3C108.6 137.3 118.8 140.9 126.6 145.7C137.7 152.3 143.7 161.6 149.1 173.9L183.3 164.6ZM323.809 185.3C310.309 168.5 289.009 159.5 266.809 159.5C248.209 159.5 230.509 166.4 217.609 177.8V164H187.609V398H221.509V315.5C233.809 325.4 250.009 330.5 267.709 330.5C289.609 330.5 310.309 321.2 323.809 304.4C337.309 287.6 342.109 266.6 342.109 245C342.109 223.1 336.409 201.5 323.809 185.3ZM296.809 283.7C289.009 295.1 275.809 300.2 262.909 300.2C249.409 300.2 237.709 295.4 229.609 286.1C221.209 276.2 217.609 260.6 217.609 245C217.609 229.1 221.209 213.8 229.609 203.6C237.109 194.3 248.809 189.8 261.709 189.8C276.409 189.8 288.709 194.6 296.509 206C303.409 215.6 306.409 230 306.409 245C306.409 260 303.709 274.1 296.809 283.7ZM484.043 185.3C470.543 168.5 449.243 159.5 427.043 159.5C408.443 159.5 390.743 166.4 377.843 177.8V164H347.843V398H381.743V315.5C394.043 325.4 410.243 330.5 427.943 330.5C449.843 330.5 470.543 321.2 484.043 304.4C497.543 287.6 502.343 266.6 502.343 245C502.343 223.1 496.642 201.5 484.043 185.3ZM457.043 283.7C449.243 295.1 436.043 300.2 423.143 300.2C409.643 300.2 397.943 295.4 389.843 286.1C381.443 276.2 377.843 260.6 377.843 245C377.843 229.1 381.443 213.8 389.843 203.6C397.343 194.3 409.043 189.8 421.943 189.8C436.643 189.8 448.943 194.6 456.743 206C463.643 215.6 466.643 230 466.643 245C466.643 260 463.943 274.1 457.043 283.7Z" fill="white"/>
</svg>
