<svg width="689" height="448" viewBox="0 0 689 448" fill="none" xmlns="http://www.w3.org/2000/svg">
<path d="M45 40L644 0V408L45 448V40Z" fill="#CF649A"/>
<path d="M180.3 170.6C172.2 149.3 158.4 132.2 140.4 122.3C126.6 114.5 110.4 111.8 95.4 111.5C81 111.5 66 113 51 120.2C32.1 128.9 17.7 148.7 17.7 170.9C17.7 185.3 23.1 200.9 35.1 211.4C45.9 221 60.3 226.7 75.9 231.2L115.8 242.9C125.4 245.6 132.6 249.2 138.3 254.6C143.7 259.4 146.4 266 146.4 272.9C146.4 280.4 143.7 288.8 135.6 294.8C126.9 301.4 111.6 304.7 99 304.7C82.5 304.7 64.5 299 54.9 285.2C48.9 278 45.3 267.8 43.2 256.7L9 266C12.3 279.8 17.7 294.5 27.6 307.1C44.7 328.4 69.3 336.5 97.8 336.5C119.7 336.5 139.5 333.5 155.4 322.4C171.6 311.6 182.1 292.4 182.1 273.8C182.1 257 175.2 241.7 162.9 230C153 220.7 141.3 214.7 123.6 209.6L85.5 198.5C74.4 195.2 63.6 191 58.8 185.9C55.2 182 53.1 177.2 53.1 171.8C53.1 163.4 57.9 154.7 66.6 149.9C74.1 145.4 84.3 143.3 95.1 143.3C105.6 143.3 115.8 146.9 123.6 151.7C134.7 158.3 140.7 167.6 146.1 179.9L180.3 170.6ZM239.569 214.7C240.469 213.2 241.969 211.4 243.169 209.9C250.369 200.9 261.469 197.3 273.769 197.3C283.969 197 293.869 199.1 301.369 204.5C307.969 209 312.469 215.9 313.969 223.7L284.869 227.9C260.869 231.5 245.869 232.4 228.169 242C212.869 251 202.969 267.2 202.969 284.3C202.969 297.2 206.869 305.6 214.369 316.4C223.069 327.8 239.569 335.9 255.769 336.2C268.969 336.5 283.069 333.5 295.069 326.6C304.069 321.8 314.569 312.5 318.769 302.3V332H348.469V230.3C348.469 220.7 346.369 209.6 340.969 199.4C328.369 176 304.069 165.8 274.369 165.8C248.869 165.8 226.969 174.5 212.569 194.3C211.069 196.1 209.869 198.5 208.669 200L239.569 214.7ZM314.869 251.3C314.869 257.9 314.869 266 310.969 275.3C304.069 295.7 280.669 305.6 261.769 305.3C246.769 305 236.269 294.2 236.569 282.2C237.169 264.8 259.669 260.9 280.969 257.3C298.669 254 308.869 252.2 314.869 251.3ZM515.569 212.6C509.869 196.1 496.969 181.1 481.369 173.6C470.569 167.9 458.269 165.5 447.169 165.5C436.069 165.5 424.369 166.1 412.069 171.5C395.869 178.4 383.869 194 383.869 212.9C383.869 220.7 386.569 231.5 393.169 238.1C399.469 245.9 410.569 251.6 420.469 254.6C427.369 257.3 433.669 259.1 458.869 266C467.869 268.4 471.769 269.6 477.769 273.2C482.869 276.5 485.869 281.6 485.869 286.4C485.869 292.4 483.169 296.9 477.769 300.5C472.069 305 459.769 306.8 451.669 306.8C439.669 306.8 425.869 303.8 417.469 293.9C412.969 288.8 409.369 278.3 408.769 271.7L376.969 279.5C382.369 295.7 383.269 303.2 394.069 314.9C409.069 331.1 428.269 336.5 451.369 336.5C466.969 336.5 481.069 334.1 494.569 325.7C508.069 317.6 516.769 302 516.769 286.7C516.769 272.3 510.169 261.2 497.869 251.9C489.469 245.3 478.669 240.5 466.669 237.8C454.069 234.5 441.469 230.9 432.169 227.6C425.869 225.5 422.269 224 419.269 221.9C416.269 219.2 414.469 216.8 414.469 211.7C414.469 206 419.869 200.9 424.969 198.5C430.669 196.1 437.869 194.9 445.369 194.9C452.569 194.9 461.569 197.3 467.569 200.6C475.369 204.8 480.469 212 483.769 220.4L515.569 212.6ZM676.444 212.6C670.744 196.1 657.844 181.1 642.244 173.6C631.444 167.9 619.144 165.5 608.044 165.5C596.944 165.5 585.244 166.1 572.944 171.5C556.744 178.4 544.744 194 544.744 212.9C544.744 220.7 547.444 231.5 554.044 238.1C560.344 245.9 571.444 251.6 581.344 254.6C588.244 257.3 594.544 259.1 619.744 266C628.744 268.4 632.644 269.6 638.644 273.2C643.744 276.5 646.744 281.6 646.744 286.4C646.744 292.4 644.044 296.9 638.644 300.5C632.944 305 620.644 306.8 612.544 306.8C600.544 306.8 586.744 303.8 578.344 293.9C573.844 288.8 570.244 278.3 569.644 271.7L537.844 279.5C543.244 295.7 544.144 303.2 554.944 314.9C569.944 331.1 589.144 336.5 612.244 336.5C627.844 336.5 641.944 334.1 655.444 325.7C668.944 317.6 677.644 302 677.644 286.7C677.644 272.3 671.044 261.2 658.744 251.9C650.344 245.3 639.544 240.5 627.544 237.8C614.944 234.5 602.344 230.9 593.044 227.6C586.744 225.5 583.144 224 580.144 221.9C577.144 219.2 575.344 216.8 575.344 211.7C575.344 206 580.744 200.9 585.844 198.5C591.544 196.1 598.744 194.9 606.244 194.9C613.444 194.9 622.444 197.3 628.444 200.6C636.244 204.8 641.344 212 644.644 220.4L676.444 212.6Z" fill="white"/>
</svg>
