<svg width="526" height="526" viewBox="0 0 526 526" fill="none" xmlns="http://www.w3.org/2000/svg">
<path d="M212.5 29.1562C243.75 11.1143 282.25 11.1143 313.5 29.1562L440.265 102.344C471.514 120.386 490.765 153.729 490.765 189.812V336.188C490.765 372.271 471.514 405.614 440.265 423.656L313.5 496.844C282.25 514.886 243.75 514.886 212.5 496.844L85.7353 423.656C54.4858 405.614 35.2353 372.271 35.2353 336.188V189.812C35.2353 153.729 54.4858 120.386 85.7353 102.344L212.5 29.1562Z" fill="#283037"/>
<path d="M256.769 203.6C248.669 182.3 234.869 165.2 216.869 155.3C203.069 147.5 186.869 144.8 171.869 144.5C157.469 144.5 142.469 146 127.469 153.2C108.569 161.9 94.1688 181.7 94.1688 203.9C94.1688 218.3 99.5688 233.9 111.569 244.4C122.369 254 136.769 259.7 152.369 264.2L192.269 275.9C201.869 278.6 209.069 282.2 214.769 287.6C220.169 292.4 222.869 299 222.869 305.9C222.869 313.4 220.169 321.8 212.069 327.8C203.369 334.4 188.069 337.7 175.469 337.7C158.969 337.7 140.969 332 131.369 318.2C125.369 311 121.769 300.8 119.669 289.7L85.4688 299C88.7688 312.8 94.1688 327.5 104.069 340.1C121.169 361.4 145.769 369.5 174.269 369.5C196.169 369.5 215.969 366.5 231.869 355.4C248.069 344.6 258.569 325.4 258.569 306.8C258.569 290 251.669 274.7 239.369 263C229.469 253.7 217.769 247.7 200.069 242.6L161.969 231.5C150.869 228.2 140.069 224 135.269 218.9C131.669 215 129.569 210.2 129.569 204.8C129.569 196.4 134.369 187.7 143.069 182.9C150.569 178.4 160.769 176.3 171.569 176.3C182.069 176.3 192.269 179.9 200.069 184.7C211.169 191.3 217.169 200.6 222.569 212.9L256.769 203.6ZM412.038 214.7C399.138 203.9 380.838 197.9 364.038 198.8C348.738 199.4 331.938 204.8 319.338 215.9L318.438 216.8V149H288.438V365H322.338V294.2C322.338 282.8 322.638 271.1 324.438 262.7C326.238 253.1 330.738 244.7 337.338 239.3C343.638 234.5 351.138 231.8 359.838 231.5C371.238 231.2 380.838 234.2 387.438 240.2C398.838 250.1 401.238 266.3 401.238 284.6V365H435.438V284.6C435.738 255.8 432.438 232.4 412.038 214.7Z" fill="white"/>
</svg>
