<svg width="599" height="448" viewBox="0 0 599 448" fill="none" xmlns="http://www.w3.org/2000/svg">
<path d="M0 80.2244C0 57.5883 17.5491 38.8282 40.1349 37.3199L553.135 3.06283C577.955 1.40537 599 21.0914 599 45.9673V367.776C599 390.412 581.451 409.172 558.865 410.68L45.8651 444.937C21.0445 446.595 0 426.909 0 402.033V80.2244Z" fill="#333333"/>
<path d="M194.3 170.6C186.2 149.3 172.4 132.2 154.4 122.3C140.6 114.5 124.4 111.8 109.4 111.5C95 111.5 80 113 65 120.2C46.1 128.9 31.7 148.7 31.7 170.9C31.7 185.3 37.1 200.9 49.1 211.4C59.9 221 74.3 226.7 89.9 231.2L129.8 242.9C139.4 245.6 146.6 249.2 152.3 254.6C157.7 259.4 160.4 266 160.4 272.9C160.4 280.4 157.7 288.8 149.6 294.8C140.9 301.4 125.6 304.7 113 304.7C96.5 304.7 78.5 299 68.9 285.2C62.9 278 59.3 267.8 57.2 256.7L23 266C26.3 279.8 31.7 294.5 41.6 307.1C58.7 328.4 83.3 336.5 111.8 336.5C133.7 336.5 153.5 333.5 169.4 322.4C185.6 311.6 196.1 292.4 196.1 273.8C196.1 257 189.2 241.7 176.9 230C167 220.7 155.3 214.7 137.6 209.6L99.5 198.5C88.4 195.2 77.6 191 72.8 185.9C69.2 182 67.1 177.2 67.1 171.8C67.1 163.4 71.9 154.7 80.6 149.9C88.1 145.4 98.3 143.3 109.1 143.3C119.6 143.3 129.8 146.9 137.6 151.7C148.7 158.3 154.7 167.6 160.1 179.9L194.3 170.6ZM324.369 196.7V170H276.369V125H242.769V170H207.969V196.7H242.769V266.9C242.769 283.7 243.369 298.1 249.669 310.4C255.969 322.4 267.069 329.3 281.769 333.2C293.169 335.9 312.369 335.3 324.369 332V302.6C315.669 304.1 305.769 304.4 297.669 303.5C290.769 302.9 283.869 299 280.269 292.7C276.369 286.7 276.369 277.7 276.369 264.8V196.7H324.369ZM472.006 170L426.406 293.6L379.606 170H345.406L410.806 336.8C403.606 356.3 398.206 366.5 393.106 369.8C389.506 372.2 382.606 372.8 377.206 372.2L372.406 371.6V404H375.406C388.606 404 400.006 403.1 410.206 395C420.706 387.5 428.506 374.3 434.506 357.8L505.606 170H472.006ZM529.719 332V111.5H563.619V332H529.719Z" fill="#FF6347"/>
</svg>
