<svg width="448" height="448" viewBox="0 0 448 448" fill="none" xmlns="http://www.w3.org/2000/svg">
<path d="M26.1524 421.848L96.8123 96.8123L421.848 26.1524L351.188 351.188L26.1524 421.848Z" fill="#FF3E01" stroke="#97B1BF" stroke-width="40"/>
<path d="M117.328 335.32C102.448 335.32 89.008 332.776 77.008 327.688C65.104 322.504 55.264 315.16 47.488 305.656C39.808 296.056 34.816 284.68 32.512 271.528L63.904 266.776C67.072 279.448 73.696 289.336 83.776 296.44C93.856 303.448 105.616 306.952 119.056 306.952C127.408 306.952 135.088 305.656 142.096 303.064C149.104 300.376 154.72 296.584 158.944 291.688C163.264 286.696 165.424 280.744 165.424 273.832C165.424 270.088 164.752 266.776 163.408 263.896C162.16 261.016 160.384 258.52 158.08 256.408C155.872 254.2 153.136 252.328 149.872 250.792C146.704 249.16 143.2 247.768 139.36 246.616L86.224 230.92C81.04 229.384 75.76 227.416 70.384 225.016C65.008 222.52 60.064 219.304 55.552 215.368C51.136 211.336 47.536 206.392 44.752 200.536C41.968 194.584 40.576 187.384 40.576 178.936C40.576 166.168 43.84 155.368 50.368 146.536C56.992 137.608 65.92 130.888 77.152 126.376C88.384 121.768 100.96 119.464 114.88 119.464C128.896 119.656 141.424 122.152 152.464 126.952C163.6 131.752 172.816 138.664 180.112 147.688C187.504 156.616 192.592 167.464 195.376 180.232L163.12 185.704C161.68 177.928 158.608 171.256 153.904 165.688C149.2 160.024 143.44 155.704 136.624 152.728C129.808 149.656 122.416 148.072 114.448 147.976C106.768 147.784 99.712 148.936 93.28 151.432C86.944 153.928 81.856 157.432 78.016 161.944C74.272 166.456 72.4 171.64 72.4 177.496C72.4 183.256 74.08 187.912 77.44 191.464C80.8 195.016 84.928 197.848 89.824 199.96C94.816 201.976 99.76 203.656 104.656 205L142.96 215.8C147.76 217.144 153.184 218.968 159.232 221.272C165.376 223.48 171.28 226.6 176.944 230.632C182.704 234.664 187.456 240.04 191.2 246.76C194.944 253.384 196.816 261.736 196.816 271.816C196.816 282.28 194.704 291.496 190.48 299.464C186.256 307.336 180.448 313.96 173.056 319.336C165.76 324.616 157.312 328.6 147.712 331.288C138.112 333.976 127.984 335.32 117.328 335.32ZM227.504 331V123.64H257.6V220.408L344.432 123.64H381.872L290.144 224.872L388.64 331H350.048L257.6 231.928V331H227.504Z" fill="white"/>
</svg>
