<svg width="448" height="448" viewBox="0 0 448 448" fill="none" xmlns="http://www.w3.org/2000/svg">
<path d="M80 80L448 0L368 368L0 448L80 80Z" fill="#FF3E00"/>
<path d="M197.3 164.6C189.2 143.3 175.4 126.2 157.4 116.3C143.6 108.5 127.4 105.8 112.4 105.5C98 105.5 83 107 68 114.2C49.1 122.9 34.7 142.7 34.7 164.9C34.7 179.3 40.1 194.9 52.1 205.4C62.9 215 77.3 220.7 92.9 225.2L132.8 236.9C142.4 239.6 149.6 243.2 155.3 248.6C160.7 253.4 163.4 260 163.4 266.9C163.4 274.4 160.7 282.8 152.6 288.8C143.9 295.4 128.6 298.7 116 298.7C99.5 298.7 81.5 293 71.9 279.2C65.9 272 62.3 261.8 60.2 250.7L26 260C29.3 273.8 34.7 288.5 44.6 301.1C61.7 322.4 86.3 330.5 114.8 330.5C136.7 330.5 156.5 327.5 172.4 316.4C188.6 305.6 199.1 286.4 199.1 267.8C199.1 251 192.2 235.7 179.9 224C170 214.7 158.3 208.7 140.6 203.6L102.5 192.5C91.4 189.2 80.6 185 75.8 179.9C72.2 176 70.1 171.2 70.1 165.8C70.1 157.4 74.9 148.7 83.6 143.9C91.1 139.4 101.3 137.3 112.1 137.3C122.6 137.3 132.8 140.9 140.6 145.7C151.7 152.3 157.7 161.6 163.1 173.9L197.3 164.6ZM329.769 164L287.769 284L245.769 164H211.869L270.669 326H304.569L363.669 164H329.769Z" fill="white"/>
</svg>
