<svg width="484" height="448" viewBox="0 0 484 448" fill="none" xmlns="http://www.w3.org/2000/svg">
<rect width="448" height="448" fill="#007ACC"/>
<path d="M329.5 110H154V141.8H224.8V326H258.7V141.8H329.5V110ZM463.506 206.6C457.806 190.1 444.906 175.1 429.306 167.6C418.506 161.9 406.206 159.5 395.106 159.5C384.006 159.5 372.306 160.1 360.006 165.5C343.806 172.4 331.806 188 331.806 206.9C331.806 214.7 334.506 225.5 341.106 232.1C347.406 239.9 358.506 245.6 368.406 248.6C375.306 251.3 381.606 253.1 406.806 260C415.806 262.4 419.706 263.6 425.706 267.2C430.806 270.5 433.806 275.6 433.806 280.4C433.806 286.4 431.106 290.9 425.706 294.5C420.006 299 407.706 300.8 399.606 300.8C387.606 300.8 373.806 297.8 365.406 287.9C360.906 282.8 357.306 272.3 356.706 265.7L324.906 273.5C330.306 289.7 331.206 297.2 342.006 308.9C357.006 325.1 376.206 330.5 399.306 330.5C414.906 330.5 429.006 328.1 442.506 319.7C456.006 311.6 464.706 296 464.706 280.7C464.706 266.3 458.106 255.2 445.806 245.9C437.406 239.3 426.606 234.5 414.606 231.8C402.006 228.5 389.406 224.9 380.106 221.6C373.806 219.5 370.206 218 367.206 215.9C364.206 213.2 362.406 210.8 362.406 205.7C362.406 200 367.806 194.9 372.906 192.5C378.606 190.1 385.806 188.9 393.306 188.9C400.506 188.9 409.506 191.3 415.506 194.6C423.306 198.8 428.406 206 431.706 214.4L463.506 206.6Z" fill="white"/>
</svg>
