<svg width="448" height="448" viewBox="0 0 448 448" fill="none" xmlns="http://www.w3.org/2000/svg">
<path d="M80 80L448 0L368 368L0 448L80 80Z" fill="#FFC83D"/>
<path d="M68.8574 294L10.3574 114H37.4824L87.3574 267.625L137.857 114H164.982L106.482 294H68.8574ZM168.951 136.875V111.5H195.076V136.875H168.951ZM168.951 294V159H195.076V294H168.951ZM297.363 294C288.863 295.667 280.53 296.375 272.363 296.125C264.197 295.875 256.905 294.292 250.488 291.375C244.072 288.458 239.238 283.875 235.988 277.625C233.072 272.042 231.488 266.375 231.238 260.625C231.072 254.792 230.988 248.208 230.988 240.875V121.5H257.238V239.625C257.238 245.042 257.28 249.75 257.363 253.75C257.53 257.75 258.405 261.125 259.988 263.875C262.988 269.042 267.738 272 274.238 272.75C280.822 273.417 288.53 273.125 297.363 271.875V294ZM205.113 180V159H297.363V180H205.113ZM367.098 297.75C353.681 297.75 341.889 294.833 331.723 289C321.639 283.083 313.764 274.875 308.098 264.375C302.514 253.792 299.723 241.542 299.723 227.625C299.723 212.875 302.473 200.083 307.973 189.25C313.556 178.417 321.306 170.042 331.223 164.125C341.139 158.208 352.681 155.25 365.848 155.25C379.598 155.25 391.306 158.458 400.973 164.875C410.639 171.208 417.848 180.25 422.598 192C427.431 203.75 429.348 217.708 428.348 233.875H402.223V224.375C402.056 208.708 399.056 197.125 393.223 189.625C387.473 182.125 378.681 178.375 366.848 178.375C353.764 178.375 343.931 182.5 337.348 190.75C330.764 199 327.473 210.917 327.473 226.5C327.473 241.333 330.764 252.833 337.348 261C343.931 269.083 353.431 273.125 365.848 273.125C374.014 273.125 381.056 271.292 386.973 267.625C392.973 263.875 397.639 258.542 400.973 251.625L426.598 259.75C421.348 271.833 413.389 281.208 402.723 287.875C392.056 294.458 380.181 297.75 367.098 297.75ZM318.973 233.875V213.5H415.348V233.875H318.973Z" fill="black"/>
</svg>
