<svg width="657" height="561" viewBox="0 0 657 561" fill="none" xmlns="http://www.w3.org/2000/svg">
<path d="M112 72.9867L251.474 560.772L511.236 488.983L376.101 -0.000140562L112 72.9867Z" fill="url(#paint0_linear_1822_373)"/>
<path d="M68.2514 372L0.859373 164.64H32.1074L89.5634 341.616L147.739 164.64H178.987L111.595 372H68.2514ZM272.416 372C262.624 373.92 253.024 374.736 243.616 374.448C234.208 374.16 225.808 372.336 218.416 368.976C211.024 365.616 205.456 360.336 201.712 353.136C198.352 346.704 196.528 340.176 196.24 333.552C196.048 326.832 195.952 319.248 195.952 310.8V173.28H226.192V309.36C226.192 315.6 226.24 321.024 226.336 325.632C226.528 330.24 227.536 334.128 229.36 337.296C232.816 343.248 238.288 346.656 245.776 347.52C253.36 348.288 262.24 347.952 272.416 346.512V372ZM166.144 240.672V216.48H272.416V240.672H166.144ZM360.934 376.32C346.054 376.32 333.574 372.72 323.494 365.52C313.414 358.224 305.782 348.384 300.598 336C295.414 323.616 292.822 309.648 292.822 294.096C292.822 278.544 295.366 264.576 300.454 252.192C305.638 239.808 313.222 230.064 323.206 222.96C333.286 215.76 345.67 212.16 360.358 212.16C374.95 212.16 387.526 215.76 398.086 222.96C408.742 230.064 416.95 239.808 422.71 252.192C428.47 264.48 431.35 278.448 431.35 294.096C431.35 309.648 428.47 323.664 422.71 336.144C417.046 348.528 408.934 358.32 398.374 365.52C387.91 372.72 375.43 376.32 360.934 376.32ZM287.782 441.12V216.48H314.566V328.368H318.022V441.12H287.782ZM356.758 349.104C366.358 349.104 374.278 346.656 380.518 341.76C386.854 336.864 391.558 330.288 394.63 322.032C397.798 313.68 399.382 304.368 399.382 294.096C399.382 283.92 397.798 274.704 394.63 266.448C391.558 258.192 386.806 251.616 380.374 246.72C373.942 241.824 365.734 239.376 355.75 239.376C346.342 239.376 338.566 241.68 332.422 246.288C326.374 250.896 321.862 257.328 318.886 265.584C316.006 273.84 314.566 283.344 314.566 294.096C314.566 304.848 316.006 314.352 318.886 322.608C321.766 330.864 326.326 337.344 332.566 342.048C338.806 346.752 346.87 349.104 356.758 349.104ZM445.864 372V216.48H472.648V254.208L468.904 249.312C470.824 244.32 473.32 239.76 476.392 235.632C479.464 231.408 483.016 227.952 487.048 225.264C490.984 222.384 495.352 220.176 500.152 218.64C505.048 217.008 510.04 216.048 515.128 215.76C520.216 215.376 525.112 215.616 529.816 216.48V244.704C524.728 243.36 519.064 242.976 512.824 243.552C506.68 244.128 501.016 246.096 495.832 249.456C490.936 252.624 487.048 256.464 484.168 260.976C481.384 265.488 479.368 270.528 478.12 276.096C476.872 281.568 476.248 287.376 476.248 293.52V372H445.864ZM593.806 376.176C574.894 376.176 559.486 372 547.582 363.648C535.678 355.296 528.382 343.536 525.694 328.368L556.51 323.616C558.43 331.68 562.846 338.064 569.758 342.768C576.766 347.376 585.454 349.68 595.822 349.68C605.23 349.68 612.574 347.76 617.854 343.92C623.23 340.08 625.918 334.8 625.918 328.08C625.918 324.144 624.958 320.976 623.038 318.576C621.214 316.08 617.326 313.728 611.374 311.52C605.422 309.312 596.35 306.576 584.158 303.312C570.814 299.856 560.206 296.16 552.334 292.224C544.558 288.192 538.99 283.536 535.63 278.256C532.366 272.88 530.734 266.4 530.734 258.816C530.734 249.408 533.23 241.2 538.222 234.192C543.214 227.184 550.222 221.76 559.246 217.92C568.366 214.08 579.022 212.16 591.214 212.16C603.118 212.16 613.726 214.032 623.038 217.776C632.35 221.52 639.886 226.848 645.646 233.76C651.406 240.576 654.862 248.592 656.014 257.808L625.198 263.424C624.142 255.936 620.638 250.032 614.686 245.712C608.734 241.392 601.006 239.04 591.502 238.656C582.382 238.272 574.99 239.808 569.326 243.264C563.662 246.624 560.83 251.28 560.83 257.232C560.83 260.688 561.886 263.616 563.998 266.016C566.206 268.416 570.43 270.72 576.67 272.928C582.91 275.136 592.126 277.776 604.318 280.848C617.374 284.208 627.742 287.952 635.422 292.08C643.102 296.112 648.574 300.96 651.838 306.624C655.198 312.192 656.878 318.96 656.878 326.928C656.878 342.288 651.262 354.336 640.03 363.072C628.894 371.808 613.486 376.176 593.806 376.176Z" fill="#3C3C43"/>
<defs>
<linearGradient id="paint0_linear_1822_373" x1="244.051" y1="36.4933" x2="379.186" y2="525.477" gradientUnits="userSpaceOnUse">
<stop stop-color="#BD34FE"/>
<stop offset="1" stop-color="#41D1FF"/>
</linearGradient>
</defs>
</svg>
