<svg width="579" height="448" viewBox="0 0 579 448" fill="none" xmlns="http://www.w3.org/2000/svg">
<path d="M66 -3.91654e-05L274.5 448L514 0L66 -3.91654e-05Z" fill="#41B883"/>
<path d="M86.0813 330H134.981L204.281 114H169.181L110.081 296.7L51.5813 114H16.7813L86.0813 330ZM324.788 168V238.5V238.8C324.788 250.5 324.788 261.9 322.988 270.3C321.188 279.9 316.688 288.3 309.788 293.4C303.788 298.5 295.988 301.2 287.588 301.5C276.188 301.5 266.588 298.8 259.688 292.5C248.288 282.9 245.888 266.7 245.888 248.4V168H211.688V248.4C211.688 277.2 214.688 300.6 235.388 318C248.288 329.1 266.288 335.1 283.388 334.2C298.688 333.6 315.488 328.2 328.088 316.8L328.988 315.9V330H358.688V168H324.788ZM425.981 258.3H551.081C551.381 255.3 551.681 252 551.681 249C551.681 227.4 545.681 206.4 532.481 190.2C517.781 172.2 495.581 163.5 471.881 163.5C448.181 163.5 425.681 172.5 410.981 190.2C398.081 206.4 391.781 228 391.781 250.5C391.781 271.2 397.781 291.3 410.981 307.8C425.381 325.2 449.381 334.5 473.681 334.5C498.281 334.5 518.381 325.8 533.381 308.7C536.981 304.5 539.081 300.9 541.181 297.3L512.381 281.7C511.181 284.4 509.081 287.1 506.981 289.5C498.581 299.7 485.981 305.1 471.881 305.1C457.781 305.1 444.281 299.4 436.481 288.6C430.181 280.2 427.181 269.4 425.981 258.3ZM471.881 192.9C485.981 192.9 499.181 198.3 506.981 209.1C512.081 215.4 514.781 223.2 516.281 231.3H427.181C428.681 223.2 431.681 215.4 436.481 209.1C444.281 198.3 457.781 192.9 471.881 192.9Z" fill="#35495E"/>
</svg>
