<svg width="590" height="526" viewBox="0 0 590 526" fill="none" xmlns="http://www.w3.org/2000/svg">
<path d="M295 0L522.765 131.5V394.5L295 526L67.2353 394.5V131.5L295 0Z" fill="#8ED5FA"/>
<path d="M251.4 149L207 308.6L162.9 149L127.5 149.3L83.4 308.6L39.3 149H3.9L66.6 365H100.2L145.2 207.5L190.5 365H224.1L287.1 149H251.4ZM420.653 224.3C407.153 207.5 385.853 198.5 363.653 198.5C345.053 198.5 327.353 205.4 314.453 216.8V203H284.453V437H318.353V354.5C330.653 364.4 346.853 369.5 364.553 369.5C386.453 369.5 407.153 360.2 420.653 343.4C434.153 326.6 438.953 305.6 438.953 284C438.953 262.1 433.253 240.5 420.653 224.3ZM393.653 322.7C385.853 334.1 372.653 339.2 359.753 339.2C346.253 339.2 334.553 334.4 326.453 325.1C318.053 315.2 314.453 299.6 314.453 284C314.453 268.1 318.053 252.8 326.453 242.6C333.953 233.3 345.653 228.8 358.553 228.8C373.253 228.8 385.553 233.6 393.353 245C400.253 254.6 403.253 269 403.253 284C403.253 299 400.553 313.1 393.653 322.7ZM478.886 290H501.986L550.886 365H588.986L531.086 276.8L581.486 203H542.786L501.986 263.3H478.886V149.3H444.686V365H478.886V290Z" fill="#1C78C0"/>
</svg>
