<svg width="570" height="448" viewBox="0 0 570 448" fill="none" xmlns="http://www.w3.org/2000/svg">
<path d="M448 448V0H89.5L0 81V448H448Z" fill="#CC1018"/>
<path d="M193.3 109L142.3 197.5L91.3 109H52L125.2 236.2V325H159.4V236.2L232.6 109H193.3ZM449.556 172.9C439.056 164.2 425.256 158.8 412.356 158.8C392.256 158.8 373.056 168.7 362.556 185.5C359.856 181 356.556 176.8 352.056 172.9C341.556 164.2 327.756 158.8 314.856 158.8C296.856 158.8 279.756 166.6 268.656 180.4V163H238.656V325H272.556V224.5C272.556 215.5 273.756 207.7 280.656 199.6C286.356 193 295.356 189.1 304.656 189.1C312.756 189.1 320.856 192.1 326.256 197.8C334.356 205.6 336.156 212.8 336.156 226V325H370.056V226V224.5C370.056 215.5 371.256 207.7 378.156 199.6C383.856 193 392.856 189.1 402.156 189.1C410.256 189.1 418.356 192.1 423.756 197.8C431.856 205.6 433.656 212.8 433.656 226V325H467.556V226C467.556 204.1 464.856 186.1 449.556 172.9ZM503.594 325V104.5H537.494V325H503.594Z" fill="black"/>
</svg>
